{
  "asset": {
    "version": "2.0",
    "generator": "THREE.GLTFExporter r164"
  },
  "scenes": [
    {
      "name": "Scene",
      "nodes": [
        5
      ]
    }
  ],
  "scene": 0,
  "nodes": [
    {
      "rotation": [
        -1.8702480376452716e-18,
        0.9990482217883634,
        0.04361938263557968,
        1.906663873550692e-9
      ],
      "translation": [
        0,
        1.2799999713897705,
        -19.049999237060547
      ],
      "scale": [
        1.0000000450183006,
        1.0000000000856542,
        1.0000000449326463
      ],
      "name": "Camera",
      "extras": {
        "name": "Camera"
      },
      "camera": 0
    },
    {
      "scale": [
        2,
        2,
        2
      ],
      "name": "Icosphere",
      "extras": {
        "name": "Icosphere"
      },
      "mesh": 0
    },
    {
      "rotation": [
        -0.6427876096865395,
        0,
        0,
        0.7660444431189779
      ],
      "translation": [
        0.04,
        0,
        0.494
      ],
      "scale": [
        0.5,
        0.6,
        1.26
      ],
      "name": "Text",
      "extras": {
        "name": "Text"
      },
      "mesh": 1
    },
    {
      "rotation": [
        0.999999999999999,
        0,
        0,
        4.3711388286737816e-8
      ],
      "translation": [
        -0.004127408344349881,
        0,
        0.0062610857080024895
      ],
      "scale": [
        2.5,
        1.0000000000000036,
        2.5000000000000093
      ],
      "name": "BézierCircle",
      "extras": {
        "name": "BézierCircle"
      },
      "children": [
        2
      ]
    },
    {
      "rotation": [
        -0.7071068286895689,
        0,
        0,
        0.7071067336835231
      ],
      "translation": [
        -10.460000991821289,
        10.219999313354492,
        -14.710000991821289
      ],
      "scale": [
        1,
        1.0000001343588654,
        1.0000001343588654
      ],
      "name": "Point",
      "extras": {
        "name": "Point"
      },
      "extensions": {
        "KHR_lights_punctual": {
          "light": 0
        }
      }
    },
    {
      "name": "logo-animation.glb",
      "children": [
        0,
        1,
        3,
        4
      ]
    }
  ],
  "cameras": [
    {
      "type": "perspective",
      "perspective": {
        "aspectRatio": 1.6868250539956804,
        "yfov": 0.39811838523076976,
        "zfar": 100,
        "znear": 0.10000000149011612
      },
      "name": "PerspectiveCamera"
    }
  ],
  "bufferViews": [
    {
      "buffer": 0,
      "byteOffset": 0,
      "byteLength": 23040,
      "target": 34962,
      "byteStride": 12
    },
    {
      "buffer": 0,
      "byteOffset": 23040,
      "byteLength": 23040,
      "target": 34962,
      "byteStride": 12
    },
    {
      "buffer": 0,
      "byteOffset": 46080,
      "byteLength": 15360,
      "target": 34962,
      "byteStride": 8
    },
    {
      "buffer": 0,
      "byteOffset": 61440,
      "byteLength": 15360,
      "target": 34962,
      "byteStride": 8
    },
    {
      "buffer": 0,
      "byteOffset": 76800,
      "byteLength": 30720,
      "target": 34962,
      "byteStride": 16
    },
    {
      "buffer": 0,
      "byteOffset": 107520,
      "byteLength": 30720,
      "target": 34962,
      "byteStride": 16
    },
    {
      "buffer": 0,
      "byteOffset": 138240,
      "byteLength": 5760,
      "target": 34963
    },
    {
      "buffer": 0,
      "byteOffset": 144000,
      "byteLength": 202320,
      "target": 34962,
      "byteStride": 12
    },
    {
      "buffer": 0,
      "byteOffset": 346320,
      "byteLength": 202320,
      "target": 34962,
      "byteStride": 12
    },
    {
      "buffer": 0,
      "byteOffset": 548640,
      "byteLength": 134880,
      "target": 34962,
      "byteStride": 8
    },
    {
      "buffer": 0,
      "byteOffset": 683520,
      "byteLength": 269760,
      "target": 34962,
      "byteStride": 16
    },
    {
      "buffer": 0,
      "byteOffset": 953280,
      "byteLength": 134880,
      "target": 34962,
      "byteStride": 8
    },
    {
      "buffer": 0,
      "byteOffset": 1088160,
      "byteLength": 269760,
      "target": 34962,
      "byteStride": 16
    },
    {
      "buffer": 0,
      "byteOffset": 1357920,
      "byteLength": 33720,
      "target": 34963
    },
    {
      "buffer": 0,
      "byteOffset": 1391640,
      "byteLength": 1004
    },
    {
      "buffer": 0,
      "byteOffset": 1392644,
      "byteLength": 4016
    },
    {
      "buffer": 0,
      "byteOffset": 1396660,
      "byteLength": 240
    },
    {
      "buffer": 0,
      "byteOffset": 1396900,
      "byteLength": 720
    }
  ],
  "buffers": [
    {
      "byteLength": 1397620,
      "uri": "data:application/octet-stream;base64,"
    }
  ],
  "accessors": [
    {
      "bufferView": 0,
      "componentType": 5126,
      "count": 1920,
      "max": [
        0.9843448400497437,
        1.034999966621399,
        1.034999966621399
      ],
      "min": [
        -0.9843448400497437,
        -1.034999966621399,
        -1.034999966621399
      ],
      "type": "VEC3"
    },
    {
      "bufferView": 1,
      "componentType": 5126,
      "count": 1920,
      "max": [
        0.9860848784446716,
        0.9806455969810486,
        0.9901633858680725
      ],
      "min": [
        -0.9860848784446716,
        -0.9806455969810486,
        -0.9901633858680725
      ],
      "type": "VEC3"
    },
    {
      "bufferView": 2,
      "componentType": 5126,
      "count": 1920,
      "max": [
        1,
        1
      ],
      "min": [
        0,
        0.5276179909706116
      ],
      "type": "VEC2"
    },
    {
      "bufferView": 3,
      "componentType": 5126,
      "count": 1920,
      "max": [
        0,
        0
      ],
      "min": [
        0,
        0
      ],
      "type": "VEC2"
    },
    {
      "bufferView": 4,
      "componentType": 5126,
      "count": 1920,
      "max": [
        0,
        0,
        0,
        0
      ],
      "min": [
        0,
        0,
        0,
        0
      ],
      "type": "VEC4"
    },
    {
      "bufferView": 5,
      "componentType": 5126,
      "count": 1920,
      "max": [
        1,
        1,
        1,
        1
      ],
      "min": [
        1,
        1,
        1,
        1
      ],
      "type": "VEC4"
    },
    {
      "bufferView": 6,
      "componentType": 5123,
      "count": 2880,
      "max": [
        1919
      ],
      "min": [
        0
      ],
      "type": "SCALAR"
    },
    {
      "bufferView": 7,
      "componentType": 5126,
      "count": 16860,
      "max": [
        2.6318488121032715,
        1.0960497856140137,
        0.24750006198883057
      ],
      "min": [
        -2.6318488121032715,
        -1.0960497856140137,
        -0.24750006198883057
      ],
      "type": "VEC3"
    },
    {
      "bufferView": 8,
      "componentType": 5126,
      "count": 16860,
      "max": [
        0.9998122453689575,
        0.9979581236839294,
        1
      ],
      "min": [
        -0.9999987483024597,
        -0.9980341196060181,
        -1
      ],
      "type": "VEC3"
    },
    {
      "bufferView": 9,
      "componentType": 5126,
      "count": 16860,
      "max": [
        1,
        1
      ],
      "min": [
        0,
        0
      ],
      "type": "VEC2"
    },
    {
      "bufferView": 10,
      "componentType": 5126,
      "count": 16860,
      "max": [
        1,
        0.9621182084083557,
        1,
        1
      ],
      "min": [
        -0.9980341196060181,
        -0.9495490789413452,
        -1,
        -1
      ],
      "type": "VEC4"
    },
    {
      "bufferView": 11,
      "componentType": 5126,
      "count": 16860,
      "max": [
        0,
        0
      ],
      "min": [
        0,
        0
      ],
      "type": "VEC2"
    },
    {
      "bufferView": 12,
      "componentType": 5126,
      "count": 16860,
      "max": [
        1,
        1,
        1,
        1
      ],
      "min": [
        1,
        1,
        1,
        1
      ],
      "type": "VEC4"
    },
    {
      "bufferView": 13,
      "componentType": 5123,
      "count": 16860,
      "max": [
        16859
      ],
      "min": [
        0
      ],
      "type": "SCALAR"
    },
    {
      "bufferView": 14,
      "componentType": 5126,
      "count": 251,
      "max": [
        10.416666984558105
      ],
      "min": [
        0
      ],
      "type": "SCALAR"
    },
    {
      "bufferView": 15,
      "componentType": 5126,
      "count": 251,
      "max": [
        0.9096867442131042,
        0.635868489742279,
        0.9734522104263306,
        1
      ],
      "min": [
        -0.8995972275733948,
        -0.7170435786247253,
        -0.981702983379364,
        0.011902665719389915
      ],
      "type": "VEC4"
    },
    {
      "bufferView": 16,
      "componentType": 5126,
      "count": 60,
      "max": [
        2.5
      ],
      "min": [
        0.0416666679084301
      ],
      "type": "SCALAR"
    },
    {
      "bufferView": 17,
      "componentType": 5126,
      "count": 60,
      "max": [
        0.19999954104423523,
        0,
        0.18999972939491272
      ],
      "min": [
        -15.200000762939453,
        0,
        0.18999972939491272
      ],
      "type": "VEC3"
    }
  ],
  "materials": [
    {
      "pbrMetallicRoughness": {
        "baseColorFactor": [
          0.08437621153575764,
          0.0781874217970207,
          0.08865558627723595,
          1
        ],
        "metallicFactor": 0.7086614370346069,
        "roughnessFactor": 0.37007877230644226
      },
      "doubleSided": true,
      "name": "Material"
    },
    {
      "pbrMetallicRoughness": {
        "baseColorFactor": [
          0,
          0.008568125615105716,
          0.7304607400847158,
          1
        ],
        "metallicFactor": 0.0708661675453186,
        "roughnessFactor": 0.19291341304779053
      },
      "doubleSided": true,
      "name": "Material.001"
    }
  ],
  "meshes": [
    {
      "primitives": [
        {
          "mode": 4,
          "attributes": {
            "POSITION": 0,
            "NORMAL": 1,
            "TEXCOORD_0": 2,
            "TEXCOORD_2": 3,
            "TANGENT": 4,
            "COLOR_0": 5
          },
          "indices": 6,
          "material": 0
        }
      ]
    },
    {
      "primitives": [
        {
          "mode": 4,
          "attributes": {
            "POSITION": 7,
            "NORMAL": 8,
            "TEXCOORD_0": 9,
            "TANGENT": 10,
            "TEXCOORD_2": 11,
            "COLOR_0": 12
          },
          "indices": 13,
          "material": 1
        }
      ]
    }
  ],
  "extensions": {
    "KHR_lights_punctual": {
      "lights": [
        {
          "name": "Point",
          "color": [
            1,
            1,
            1
          ],
          "intensity": 543.5141306588226,
          "type": "point"
        }
      ]
    }
  },
  "animations": [
    {
      "name": "IcosphereAction.001",
      "samplers": [
        {
          "input": 14,
          "output": 15,
          "interpolation": "LINEAR"
        }
      ],
      "channels": [
        {
          "sampler": 0,
          "target": {
            "node": 1,
            "path": "rotation"
          }
        }
      ]
    },
    {
      "name": "TextAction.004",
      "samplers": [
        {
          "input": 16,
          "output": 17,
          "interpolation": "LINEAR"
        }
      ],
      "channels": [
        {
          "sampler": 0,
          "target": {
            "node": 2,
            "path": "translation"
          }
        }
      ]
    }
  ],
  "extensionsUsed": [
    "KHR_lights_punctual"
  ]
}