<?xml version="1.0" standalone="no"?>
<!DOCTYPE svg PUBLIC "-//W3C//DTD SVG 20010904//EN"
 "http://www.w3.org/TR/2001/REC-SVG-20010904/DTD/svg10.dtd">
<svg version="1.0" xmlns="http://www.w3.org/2000/svg"
 width="512.000000pt" height="512.000000pt" viewBox="0 0 512.000000 512.000000"
 preserveAspectRatio="xMidYMid meet">
<metadata>
Created by potrace 1.16, written by Peter Selinger 2001-2019
</metadata>
<g transform="translate(0.000000,512.000000) scale(0.100000,-0.100000)"
fill="#000000" stroke="none">
<path d="M0 2560 l0 -2560 2560 0 2560 0 0 2560 0 2560 -2560 0 -2560 0 0
-2560z m2860 2235 c631 -96 1181 -438 1552 -965 557 -792 538 -1894 -46 -2679
-465 -624 -1203 -966 -1983 -920 -742 43 -1422 448 -1812 1077 -562 906 -427
2085 326 2838 184 184 374 319 618 439 240 118 485 190 749 220 150 18 448 12
596 -10z"/>
<path d="M1574 3732 c-193 -67 -242 -301 -91 -439 79 -73 213 -93 320 -48 57
24 123 90 144 143 84 221 -137 425 -373 344z"/>
<path d="M3063 3016 c-109 -27 -205 -93 -291 -201 l-31 -40 -1 113 0 112 -255
0 -255 0 0 -775 0 -775 255 0 254 0 3 488 3 487 27 50 c56 106 137 154 257
155 129 0 203 -55 241 -179 19 -59 20 -94 20 -532 l0 -469 255 0 255 0 0 504
c0 543 -3 584 -54 719 -67 177 -204 301 -378 342 -76 18 -233 18 -305 1z"/>
<path d="M1420 2225 l0 -775 255 0 255 0 0 775 0 775 -255 0 -255 0 0 -775z"/>
</g>
</svg>
