<svg xmlns="http://www.w3.org/2000/svg" xmlns:xlink="http://www.w3.org/1999/xlink" width="500" zoomAndPan="magnify" viewBox="0 0 375 374.999991" height="500" preserveAspectRatio="xMidYMid meet" version="1.0"><defs><filter x="0%" y="0%" width="100%" height="100%" id="464f0b7612"><feColorMatrix values="0 0 0 0 1 0 0 0 0 1 0 0 0 0 1 0 0 0 1 0" color-interpolation-filters="sRGB"/></filter><g/><clipPath id="c138cff1d4"><path d="M 0 0.183594 L 374.328125 0.183594 L 374.328125 375 L 0 375 Z M 0 0.183594 " clip-rule="nonzero"/></clipPath><clipPath id="72451b6457"><path d="M -0.746094 92.433594 L -0.746094 282.75 C -0.746094 307.214844 8.972656 330.679688 26.273438 347.980469 C 43.574219 365.28125 67.035156 375 91.503906 375 L 281.863281 375 C 306.332031 375 329.792969 365.28125 347.09375 347.980469 C 364.394531 330.679688 374.113281 307.214844 374.113281 282.75 L 374.113281 92.433594 C 374.113281 67.96875 364.394531 44.503906 347.09375 27.203125 C 329.792969 9.902344 306.332031 0.183594 281.863281 0.183594 L 91.503906 0.183594 C 67.035156 0.183594 43.574219 9.902344 26.273438 27.203125 C 8.972656 44.503906 -0.746094 67.96875 -0.746094 92.433594 Z M -0.746094 92.433594 " clip-rule="nonzero"/></clipPath><linearGradient x1="0.637179" gradientTransform="matrix(1.172107, 0, 0, 1.172107, -0.746837, 0.18497)" y1="0" x2="319.818306" gradientUnits="userSpaceOnUse" y2="0" id="fee7535bb7"><stop stop-opacity="1" stop-color="rgb(0.0411987%, 0.0396729%, 0.158691%)" offset="0"/><stop stop-opacity="1" stop-color="rgb(0.12207%, 0.117493%, 0.471497%)" offset="0.00390625"/><stop stop-opacity="1" stop-color="rgb(0.202942%, 0.195312%, 0.785828%)" offset="0.0078125"/><stop stop-opacity="1" stop-color="rgb(0.283813%, 0.273132%, 1.098633%)" offset="0.0117188"/><stop stop-opacity="1" stop-color="rgb(0.364685%, 0.350952%, 1.412964%)" offset="0.015625"/><stop stop-opacity="1" stop-color="rgb(0.445557%, 0.428772%, 1.725769%)" offset="0.0195313"/><stop stop-opacity="1" stop-color="rgb(0.526428%, 0.506592%, 2.038574%)" offset="0.0234375"/><stop stop-opacity="1" stop-color="rgb(0.6073%, 0.584412%, 2.351379%)" offset="0.0273438"/><stop stop-opacity="1" stop-color="rgb(0.689697%, 0.662231%, 2.66571%)" offset="0.03125"/><stop stop-opacity="1" stop-color="rgb(0.770569%, 0.740051%, 2.978516%)" offset="0.0351562"/><stop stop-opacity="1" stop-color="rgb(0.85144%, 0.817871%, 3.291321%)" offset="0.0390625"/><stop stop-opacity="1" stop-color="rgb(0.932312%, 0.895691%, 3.604126%)" offset="0.0429688"/><stop stop-opacity="1" stop-color="rgb(1.013184%, 0.973511%, 3.918457%)" offset="0.046875"/><stop stop-opacity="1" stop-color="rgb(1.094055%, 1.051331%, 4.231262%)" offset="0.0507812"/><stop stop-opacity="1" stop-color="rgb(1.174927%, 1.130676%, 4.545593%)" offset="0.0546875"/><stop stop-opacity="1" stop-color="rgb(1.255798%, 1.208496%, 4.858398%)" offset="0.0585938"/><stop stop-opacity="1" stop-color="rgb(1.33667%, 1.286316%, 5.171204%)" offset="0.0625"/><stop stop-opacity="1" stop-color="rgb(1.417542%, 1.364136%, 5.484009%)" offset="0.0664062"/><stop stop-opacity="1" stop-color="rgb(1.499939%, 1.441956%, 5.79834%)" offset="0.0703125"/><stop stop-opacity="1" stop-color="rgb(1.580811%, 1.519775%, 6.111145%)" offset="0.0742188"/><stop stop-opacity="1" stop-color="rgb(1.661682%, 1.597595%, 6.42395%)" offset="0.078125"/><stop stop-opacity="1" stop-color="rgb(1.742554%, 1.675415%, 6.736755%)" offset="0.0820312"/><stop stop-opacity="1" stop-color="rgb(1.823425%, 1.753235%, 7.051086%)" offset="0.0859375"/><stop stop-opacity="1" stop-color="rgb(1.904297%, 1.831055%, 7.363892%)" offset="0.0898437"/><stop stop-opacity="1" stop-color="rgb(1.985168%, 1.908875%, 7.678223%)" offset="0.09375"/><stop stop-opacity="1" stop-color="rgb(2.06604%, 1.986694%, 7.991028%)" offset="0.0976563"/><stop stop-opacity="1" stop-color="rgb(2.148438%, 2.064514%, 8.303833%)" offset="0.101562"/><stop stop-opacity="1" stop-color="rgb(2.229309%, 2.142334%, 8.616638%)" offset="0.105469"/><stop stop-opacity="1" stop-color="rgb(2.310181%, 2.22168%, 8.930969%)" offset="0.109375"/><stop stop-opacity="1" stop-color="rgb(2.391052%, 2.2995%, 9.243774%)" offset="0.113281"/><stop stop-opacity="1" stop-color="rgb(2.471924%, 2.377319%, 9.55658%)" offset="0.117188"/><stop stop-opacity="1" stop-color="rgb(2.552795%, 2.455139%, 9.869385%)" offset="0.121094"/><stop stop-opacity="1" stop-color="rgb(2.633667%, 2.532959%, 10.183716%)" offset="0.125"/><stop stop-opacity="1" stop-color="rgb(2.714539%, 2.610779%, 10.496521%)" offset="0.128906"/><stop stop-opacity="1" stop-color="rgb(2.79541%, 2.688599%, 10.810852%)" offset="0.132813"/><stop stop-opacity="1" stop-color="rgb(2.876282%, 2.766418%, 11.123657%)" offset="0.136719"/><stop stop-opacity="1" stop-color="rgb(2.958679%, 2.844238%, 11.436462%)" offset="0.140625"/><stop stop-opacity="1" stop-color="rgb(3.039551%, 2.922058%, 11.749268%)" offset="0.144531"/><stop stop-opacity="1" stop-color="rgb(3.120422%, 2.999878%, 12.063599%)" offset="0.148438"/><stop stop-opacity="1" stop-color="rgb(3.201294%, 3.077698%, 12.376404%)" offset="0.152344"/><stop stop-opacity="1" stop-color="rgb(3.282166%, 3.155518%, 12.689209%)" offset="0.15625"/><stop stop-opacity="1" stop-color="rgb(3.363037%, 3.233337%, 13.002014%)" offset="0.160156"/><stop stop-opacity="1" stop-color="rgb(3.443909%, 3.311157%, 13.316345%)" offset="0.164063"/><stop stop-opacity="1" stop-color="rgb(3.52478%, 3.388977%, 13.62915%)" offset="0.167969"/><stop stop-opacity="1" stop-color="rgb(3.607178%, 3.468323%, 13.941956%)" offset="0.171875"/><stop stop-opacity="1" stop-color="rgb(3.688049%, 3.546143%, 14.254761%)" offset="0.175781"/><stop stop-opacity="1" stop-color="rgb(3.768921%, 3.623962%, 14.569092%)" offset="0.179688"/><stop stop-opacity="1" stop-color="rgb(3.849792%, 3.701782%, 14.881897%)" offset="0.183594"/><stop stop-opacity="1" stop-color="rgb(3.930664%, 3.779602%, 15.196228%)" offset="0.1875"/><stop stop-opacity="1" stop-color="rgb(4.011536%, 3.857422%, 15.509033%)" offset="0.191406"/><stop stop-opacity="1" stop-color="rgb(4.092407%, 3.935242%, 15.821838%)" offset="0.195313"/><stop stop-opacity="1" stop-color="rgb(4.173279%, 4.013062%, 16.134644%)" offset="0.199219"/><stop stop-opacity="1" stop-color="rgb(4.25415%, 4.090881%, 16.448975%)" offset="0.203125"/><stop stop-opacity="1" stop-color="rgb(4.335022%, 4.168701%, 16.76178%)" offset="0.207031"/><stop stop-opacity="1" stop-color="rgb(4.417419%, 4.246521%, 17.074585%)" offset="0.210938"/><stop stop-opacity="1" stop-color="rgb(4.498291%, 4.324341%, 17.38739%)" offset="0.214844"/><stop stop-opacity="1" stop-color="rgb(4.579163%, 4.402161%, 17.701721%)" offset="0.21875"/><stop stop-opacity="1" stop-color="rgb(4.660034%, 4.47998%, 18.014526%)" offset="0.222656"/><stop stop-opacity="1" stop-color="rgb(4.740906%, 4.559326%, 18.328857%)" offset="0.226563"/><stop stop-opacity="1" stop-color="rgb(4.821777%, 4.637146%, 18.641663%)" offset="0.230469"/><stop stop-opacity="1" stop-color="rgb(4.902649%, 4.714966%, 18.954468%)" offset="0.234375"/><stop stop-opacity="1" stop-color="rgb(4.983521%, 4.792786%, 19.267273%)" offset="0.238281"/><stop stop-opacity="1" stop-color="rgb(5.065918%, 4.870605%, 19.581604%)" offset="0.242188"/><stop stop-opacity="1" stop-color="rgb(5.14679%, 4.948425%, 19.894409%)" offset="0.246094"/><stop stop-opacity="1" stop-color="rgb(5.227661%, 5.026245%, 20.207214%)" offset="0.25"/><stop stop-opacity="1" stop-color="rgb(5.308533%, 5.104065%, 20.52002%)" offset="0.253906"/><stop stop-opacity="1" stop-color="rgb(5.389404%, 5.181885%, 20.834351%)" offset="0.257813"/><stop stop-opacity="1" stop-color="rgb(5.470276%, 5.259705%, 21.147156%)" offset="0.261719"/><stop stop-opacity="1" stop-color="rgb(5.551147%, 5.337524%, 21.461487%)" offset="0.265625"/><stop stop-opacity="1" stop-color="rgb(5.632019%, 5.415344%, 21.774292%)" offset="0.269531"/><stop stop-opacity="1" stop-color="rgb(5.712891%, 5.493164%, 22.087097%)" offset="0.273438"/><stop stop-opacity="1" stop-color="rgb(5.793762%, 5.570984%, 22.399902%)" offset="0.277344"/><stop stop-opacity="1" stop-color="rgb(5.87616%, 5.65033%, 22.714233%)" offset="0.28125"/><stop stop-opacity="1" stop-color="rgb(5.957031%, 5.728149%, 23.027039%)" offset="0.285156"/><stop stop-opacity="1" stop-color="rgb(6.037903%, 5.805969%, 23.339844%)" offset="0.289063"/><stop stop-opacity="1" stop-color="rgb(6.118774%, 5.883789%, 23.652649%)" offset="0.292969"/><stop stop-opacity="1" stop-color="rgb(6.199646%, 5.961609%, 23.96698%)" offset="0.296875"/><stop stop-opacity="1" stop-color="rgb(6.280518%, 6.039429%, 24.279785%)" offset="0.300781"/><stop stop-opacity="1" stop-color="rgb(6.361389%, 6.117249%, 24.594116%)" offset="0.304688"/><stop stop-opacity="1" stop-color="rgb(6.442261%, 6.195068%, 24.906921%)" offset="0.308594"/><stop stop-opacity="1" stop-color="rgb(6.524658%, 6.272888%, 25.219727%)" offset="0.3125"/><stop stop-opacity="1" stop-color="rgb(6.60553%, 6.350708%, 25.532532%)" offset="0.316406"/><stop stop-opacity="1" stop-color="rgb(6.686401%, 6.428528%, 25.846863%)" offset="0.320313"/><stop stop-opacity="1" stop-color="rgb(6.767273%, 6.506348%, 26.159668%)" offset="0.324219"/><stop stop-opacity="1" stop-color="rgb(6.848145%, 6.584167%, 26.472473%)" offset="0.328125"/><stop stop-opacity="1" stop-color="rgb(6.929016%, 6.661987%, 26.785278%)" offset="0.332031"/><stop stop-opacity="1" stop-color="rgb(7.009888%, 6.741333%, 27.099609%)" offset="0.335938"/><stop stop-opacity="1" stop-color="rgb(7.090759%, 6.819153%, 27.412415%)" offset="0.339844"/><stop stop-opacity="1" stop-color="rgb(7.171631%, 6.896973%, 27.726746%)" offset="0.34375"/><stop stop-opacity="1" stop-color="rgb(7.252502%, 6.974792%, 28.039551%)" offset="0.347656"/><stop stop-opacity="1" stop-color="rgb(7.3349%, 7.052612%, 28.352356%)" offset="0.351563"/><stop stop-opacity="1" stop-color="rgb(7.415771%, 7.130432%, 28.665161%)" offset="0.355469"/><stop stop-opacity="1" stop-color="rgb(7.496643%, 7.208252%, 28.979492%)" offset="0.359375"/><stop stop-opacity="1" stop-color="rgb(7.577515%, 7.286072%, 29.292297%)" offset="0.363281"/><stop stop-opacity="1" stop-color="rgb(7.658386%, 7.363892%, 29.605103%)" offset="0.367188"/><stop stop-opacity="1" stop-color="rgb(7.739258%, 7.441711%, 29.917908%)" offset="0.371094"/><stop stop-opacity="1" stop-color="rgb(7.820129%, 7.519531%, 30.232239%)" offset="0.375"/><stop stop-opacity="1" stop-color="rgb(7.901001%, 7.597351%, 30.545044%)" offset="0.378906"/><stop stop-opacity="1" stop-color="rgb(7.983398%, 7.675171%, 30.859375%)" offset="0.382813"/><stop stop-opacity="1" stop-color="rgb(8.06427%, 7.752991%, 31.17218%)" offset="0.386719"/><stop stop-opacity="1" stop-color="rgb(8.145142%, 7.830811%, 31.484985%)" offset="0.390625"/><stop stop-opacity="1" stop-color="rgb(8.226013%, 7.90863%, 31.797791%)" offset="0.394531"/><stop stop-opacity="1" stop-color="rgb(8.306885%, 7.987976%, 32.112122%)" offset="0.398438"/><stop stop-opacity="1" stop-color="rgb(8.387756%, 8.065796%, 32.424927%)" offset="0.402344"/><stop stop-opacity="1" stop-color="rgb(8.468628%, 8.143616%, 32.737732%)" offset="0.40625"/><stop stop-opacity="1" stop-color="rgb(8.5495%, 8.221436%, 33.050537%)" offset="0.410156"/><stop stop-opacity="1" stop-color="rgb(8.630371%, 8.299255%, 33.364868%)" offset="0.414063"/><stop stop-opacity="1" stop-color="rgb(8.711243%, 8.377075%, 33.677673%)" offset="0.417969"/><stop stop-opacity="1" stop-color="rgb(8.79364%, 8.454895%, 33.992004%)" offset="0.421875"/><stop stop-opacity="1" stop-color="rgb(8.874512%, 8.532715%, 34.30481%)" offset="0.425781"/><stop stop-opacity="1" stop-color="rgb(8.955383%, 8.610535%, 34.617615%)" offset="0.429688"/><stop stop-opacity="1" stop-color="rgb(9.036255%, 8.688354%, 34.93042%)" offset="0.433594"/><stop stop-opacity="1" stop-color="rgb(9.117126%, 8.766174%, 35.244751%)" offset="0.4375"/><stop stop-opacity="1" stop-color="rgb(9.197998%, 8.843994%, 35.557556%)" offset="0.441406"/><stop stop-opacity="1" stop-color="rgb(9.27887%, 8.921814%, 35.870361%)" offset="0.445313"/><stop stop-opacity="1" stop-color="rgb(9.359741%, 8.999634%, 36.183167%)" offset="0.449219"/><stop stop-opacity="1" stop-color="rgb(9.442139%, 9.078979%, 36.497498%)" offset="0.453125"/><stop stop-opacity="1" stop-color="rgb(9.52301%, 9.156799%, 36.810303%)" offset="0.457031"/><stop stop-opacity="1" stop-color="rgb(9.603882%, 9.234619%, 37.123108%)" offset="0.460938"/><stop stop-opacity="1" stop-color="rgb(9.684753%, 9.312439%, 37.435913%)" offset="0.464844"/><stop stop-opacity="1" stop-color="rgb(9.765625%, 9.390259%, 37.750244%)" offset="0.46875"/><stop stop-opacity="1" stop-color="rgb(9.846497%, 9.468079%, 38.063049%)" offset="0.472656"/><stop stop-opacity="1" stop-color="rgb(9.927368%, 9.545898%, 38.37738%)" offset="0.476563"/><stop stop-opacity="1" stop-color="rgb(10.00824%, 9.623718%, 38.690186%)" offset="0.480469"/><stop stop-opacity="1" stop-color="rgb(10.089111%, 9.701538%, 39.002991%)" offset="0.484375"/><stop stop-opacity="1" stop-color="rgb(10.169983%, 9.779358%, 39.315796%)" offset="0.488281"/><stop stop-opacity="1" stop-color="rgb(10.25238%, 9.857178%, 39.630127%)" offset="0.492188"/><stop stop-opacity="1" stop-color="rgb(10.333252%, 9.934998%, 39.942932%)" offset="0.496094"/><stop stop-opacity="1" stop-color="rgb(10.414124%, 10.012817%, 40.255737%)" offset="0.5"/><stop stop-opacity="1" stop-color="rgb(10.494995%, 10.090637%, 40.568542%)" offset="0.503906"/><stop stop-opacity="1" stop-color="rgb(10.575867%, 10.169983%, 40.882874%)" offset="0.507812"/><stop stop-opacity="1" stop-color="rgb(10.656738%, 10.247803%, 41.195679%)" offset="0.511719"/><stop stop-opacity="1" stop-color="rgb(10.73761%, 10.325623%, 41.51001%)" offset="0.515625"/><stop stop-opacity="1" stop-color="rgb(10.818481%, 10.403442%, 41.822815%)" offset="0.519531"/><stop stop-opacity="1" stop-color="rgb(10.900879%, 10.481262%, 42.13562%)" offset="0.523438"/><stop stop-opacity="1" stop-color="rgb(10.98175%, 10.559082%, 42.448425%)" offset="0.527344"/><stop stop-opacity="1" stop-color="rgb(11.062622%, 10.636902%, 42.762756%)" offset="0.53125"/><stop stop-opacity="1" stop-color="rgb(11.143494%, 10.714722%, 43.075562%)" offset="0.535156"/><stop stop-opacity="1" stop-color="rgb(11.224365%, 10.792542%, 43.388367%)" offset="0.539062"/><stop stop-opacity="1" stop-color="rgb(11.305237%, 10.870361%, 43.701172%)" offset="0.542969"/><stop stop-opacity="1" stop-color="rgb(11.386108%, 10.948181%, 44.015503%)" offset="0.546875"/><stop stop-opacity="1" stop-color="rgb(11.46698%, 11.026001%, 44.328308%)" offset="0.550781"/><stop stop-opacity="1" stop-color="rgb(11.549377%, 11.103821%, 44.642639%)" offset="0.554688"/><stop stop-opacity="1" stop-color="rgb(11.630249%, 11.181641%, 44.955444%)" offset="0.558594"/><stop stop-opacity="1" stop-color="rgb(11.711121%, 11.260986%, 45.26825%)" offset="0.5625"/><stop stop-opacity="1" stop-color="rgb(11.791992%, 11.338806%, 45.581055%)" offset="0.566406"/><stop stop-opacity="1" stop-color="rgb(11.872864%, 11.416626%, 45.895386%)" offset="0.570313"/><stop stop-opacity="1" stop-color="rgb(11.953735%, 11.494446%, 46.208191%)" offset="0.574219"/><stop stop-opacity="1" stop-color="rgb(12.034607%, 11.572266%, 46.520996%)" offset="0.578125"/><stop stop-opacity="1" stop-color="rgb(12.115479%, 11.650085%, 46.833801%)" offset="0.582031"/><stop stop-opacity="1" stop-color="rgb(12.19635%, 11.727905%, 47.148132%)" offset="0.585938"/><stop stop-opacity="1" stop-color="rgb(12.277222%, 11.805725%, 47.460938%)" offset="0.589844"/><stop stop-opacity="1" stop-color="rgb(12.359619%, 11.883545%, 47.775269%)" offset="0.59375"/><stop stop-opacity="1" stop-color="rgb(12.440491%, 11.961365%, 48.088074%)" offset="0.597656"/><stop stop-opacity="1" stop-color="rgb(12.521362%, 12.039185%, 48.400879%)" offset="0.601562"/><stop stop-opacity="1" stop-color="rgb(12.602234%, 12.117004%, 48.713684%)" offset="0.605469"/><stop stop-opacity="1" stop-color="rgb(12.683105%, 12.194824%, 49.028015%)" offset="0.609375"/><stop stop-opacity="1" stop-color="rgb(12.763977%, 12.272644%, 49.34082%)" offset="0.613281"/><stop stop-opacity="1" stop-color="rgb(12.844849%, 12.350464%, 49.653625%)" offset="0.617188"/><stop stop-opacity="1" stop-color="rgb(12.92572%, 12.428284%, 49.966431%)" offset="0.621094"/><stop stop-opacity="1" stop-color="rgb(13.008118%, 12.507629%, 50.280762%)" offset="0.625"/><stop stop-opacity="1" stop-color="rgb(13.088989%, 12.585449%, 50.593567%)" offset="0.628906"/><stop stop-opacity="1" stop-color="rgb(13.169861%, 12.663269%, 50.907898%)" offset="0.632812"/><stop stop-opacity="1" stop-color="rgb(13.250732%, 12.741089%, 51.220703%)" offset="0.636719"/><stop stop-opacity="1" stop-color="rgb(13.331604%, 12.818909%, 51.533508%)" offset="0.640625"/><stop stop-opacity="1" stop-color="rgb(13.412476%, 12.896729%, 51.846313%)" offset="0.644531"/><stop stop-opacity="1" stop-color="rgb(13.493347%, 12.974548%, 52.160645%)" offset="0.648437"/><stop stop-opacity="1" stop-color="rgb(13.574219%, 13.052368%, 52.47345%)" offset="0.652344"/><stop stop-opacity="1" stop-color="rgb(13.65509%, 13.130188%, 52.786255%)" offset="0.65625"/><stop stop-opacity="1" stop-color="rgb(13.735962%, 13.208008%, 53.09906%)" offset="0.660156"/><stop stop-opacity="1" stop-color="rgb(13.818359%, 13.285828%, 53.413391%)" offset="0.664063"/><stop stop-opacity="1" stop-color="rgb(13.899231%, 13.363647%, 53.726196%)" offset="0.667969"/><stop stop-opacity="1" stop-color="rgb(13.980103%, 13.441467%, 54.040527%)" offset="0.671875"/><stop stop-opacity="1" stop-color="rgb(14.060974%, 13.519287%, 54.353333%)" offset="0.675781"/><stop stop-opacity="1" stop-color="rgb(14.141846%, 13.598633%, 54.666138%)" offset="0.679688"/><stop stop-opacity="1" stop-color="rgb(14.222717%, 13.676453%, 54.978943%)" offset="0.683594"/><stop stop-opacity="1" stop-color="rgb(14.303589%, 13.754272%, 55.293274%)" offset="0.6875"/><stop stop-opacity="1" stop-color="rgb(14.38446%, 13.832092%, 55.606079%)" offset="0.691406"/><stop stop-opacity="1" stop-color="rgb(14.466858%, 13.909912%, 55.918884%)" offset="0.695312"/><stop stop-opacity="1" stop-color="rgb(14.547729%, 13.987732%, 56.231689%)" offset="0.699219"/><stop stop-opacity="1" stop-color="rgb(14.628601%, 14.065552%, 56.546021%)" offset="0.703125"/><stop stop-opacity="1" stop-color="rgb(14.709473%, 14.143372%, 56.858826%)" offset="0.707031"/><stop stop-opacity="1" stop-color="rgb(14.790344%, 14.221191%, 57.173157%)" offset="0.710938"/><stop stop-opacity="1" stop-color="rgb(14.871216%, 14.299011%, 57.485962%)" offset="0.714844"/><stop stop-opacity="1" stop-color="rgb(14.952087%, 14.376831%, 57.798767%)" offset="0.71875"/><stop stop-opacity="1" stop-color="rgb(15.032959%, 14.454651%, 58.111572%)" offset="0.722656"/><stop stop-opacity="1" stop-color="rgb(15.113831%, 14.532471%, 58.425903%)" offset="0.726562"/><stop stop-opacity="1" stop-color="rgb(15.194702%, 14.610291%, 58.738708%)" offset="0.730469"/><stop stop-opacity="1" stop-color="rgb(15.2771%, 14.689636%, 59.051514%)" offset="0.734375"/><stop stop-opacity="1" stop-color="rgb(15.357971%, 14.767456%, 59.364319%)" offset="0.738281"/><stop stop-opacity="1" stop-color="rgb(15.438843%, 14.845276%, 59.67865%)" offset="0.742187"/><stop stop-opacity="1" stop-color="rgb(15.519714%, 14.923096%, 59.991455%)" offset="0.746094"/><stop stop-opacity="1" stop-color="rgb(15.600586%, 15.000916%, 60.30426%)" offset="0.75"/><stop stop-opacity="1" stop-color="rgb(15.681458%, 15.078735%, 60.617065%)" offset="0.753906"/><stop stop-opacity="1" stop-color="rgb(15.762329%, 15.156555%, 60.931396%)" offset="0.757813"/><stop stop-opacity="1" stop-color="rgb(15.843201%, 15.234375%, 61.244202%)" offset="0.761719"/><stop stop-opacity="1" stop-color="rgb(15.925598%, 15.312195%, 61.558533%)" offset="0.765625"/><stop stop-opacity="1" stop-color="rgb(16.00647%, 15.390015%, 61.871338%)" offset="0.769531"/><stop stop-opacity="1" stop-color="rgb(16.087341%, 15.467834%, 62.184143%)" offset="0.773438"/><stop stop-opacity="1" stop-color="rgb(16.168213%, 15.545654%, 62.496948%)" offset="0.777344"/><stop stop-opacity="1" stop-color="rgb(16.249084%, 15.623474%, 62.811279%)" offset="0.78125"/><stop stop-opacity="1" stop-color="rgb(16.329956%, 15.701294%, 63.124084%)" offset="0.785156"/><stop stop-opacity="1" stop-color="rgb(16.410828%, 15.78064%, 63.43689%)" offset="0.789062"/><stop stop-opacity="1" stop-color="rgb(16.491699%, 15.858459%, 63.749695%)" offset="0.792969"/><stop stop-opacity="1" stop-color="rgb(16.572571%, 15.936279%, 64.064026%)" offset="0.796875"/><stop stop-opacity="1" stop-color="rgb(16.653442%, 16.014099%, 64.376831%)" offset="0.800781"/><stop stop-opacity="1" stop-color="rgb(16.73584%, 16.091919%, 64.691162%)" offset="0.804688"/><stop stop-opacity="1" stop-color="rgb(16.816711%, 16.169739%, 65.003967%)" offset="0.808594"/><stop stop-opacity="1" stop-color="rgb(16.897583%, 16.247559%, 65.316772%)" offset="0.8125"/><stop stop-opacity="1" stop-color="rgb(16.978455%, 16.325378%, 65.629578%)" offset="0.816406"/><stop stop-opacity="1" stop-color="rgb(17.059326%, 16.403198%, 65.943909%)" offset="0.820312"/><stop stop-opacity="1" stop-color="rgb(17.140198%, 16.481018%, 66.256714%)" offset="0.824219"/><stop stop-opacity="1" stop-color="rgb(17.221069%, 16.558838%, 66.569519%)" offset="0.828125"/><stop stop-opacity="1" stop-color="rgb(17.301941%, 16.636658%, 66.882324%)" offset="0.832031"/><stop stop-opacity="1" stop-color="rgb(17.384338%, 16.714478%, 67.196655%)" offset="0.835937"/><stop stop-opacity="1" stop-color="rgb(17.46521%, 16.792297%, 67.50946%)" offset="0.839844"/><stop stop-opacity="1" stop-color="rgb(17.546082%, 16.870117%, 67.823792%)" offset="0.84375"/><stop stop-opacity="1" stop-color="rgb(17.626953%, 16.947937%, 68.136597%)" offset="0.847656"/><stop stop-opacity="1" stop-color="rgb(17.707825%, 17.027283%, 68.449402%)" offset="0.851563"/><stop stop-opacity="1" stop-color="rgb(17.788696%, 17.105103%, 68.762207%)" offset="0.855469"/><stop stop-opacity="1" stop-color="rgb(17.869568%, 17.182922%, 69.076538%)" offset="0.859375"/><stop stop-opacity="1" stop-color="rgb(17.950439%, 17.260742%, 69.389343%)" offset="0.863281"/><stop stop-opacity="1" stop-color="rgb(18.031311%, 17.338562%, 69.702148%)" offset="0.867188"/><stop stop-opacity="1" stop-color="rgb(18.112183%, 17.416382%, 70.014954%)" offset="0.871094"/><stop stop-opacity="1" stop-color="rgb(18.19458%, 17.494202%, 70.329285%)" offset="0.875"/><stop stop-opacity="1" stop-color="rgb(18.275452%, 17.572021%, 70.64209%)" offset="0.878906"/><stop stop-opacity="1" stop-color="rgb(18.356323%, 17.649841%, 70.956421%)" offset="0.882812"/><stop stop-opacity="1" stop-color="rgb(18.437195%, 17.727661%, 71.269226%)" offset="0.886719"/><stop stop-opacity="1" stop-color="rgb(18.518066%, 17.805481%, 71.582031%)" offset="0.890625"/><stop stop-opacity="1" stop-color="rgb(18.598938%, 17.883301%, 71.894836%)" offset="0.894531"/><stop stop-opacity="1" stop-color="rgb(18.67981%, 17.961121%, 72.209167%)" offset="0.898438"/><stop stop-opacity="1" stop-color="rgb(18.760681%, 18.03894%, 72.521973%)" offset="0.902344"/><stop stop-opacity="1" stop-color="rgb(18.843079%, 18.118286%, 72.834778%)" offset="0.90625"/><stop stop-opacity="1" stop-color="rgb(18.92395%, 18.196106%, 73.147583%)" offset="0.910156"/><stop stop-opacity="1" stop-color="rgb(19.004822%, 18.273926%, 73.461914%)" offset="0.914062"/><stop stop-opacity="1" stop-color="rgb(19.085693%, 18.351746%, 73.774719%)" offset="0.917969"/><stop stop-opacity="1" stop-color="rgb(19.166565%, 18.429565%, 74.08905%)" offset="0.921875"/><stop stop-opacity="1" stop-color="rgb(19.247437%, 18.507385%, 74.401855%)" offset="0.925781"/><stop stop-opacity="1" stop-color="rgb(19.328308%, 18.585205%, 74.714661%)" offset="0.929687"/><stop stop-opacity="1" stop-color="rgb(19.40918%, 18.663025%, 75.027466%)" offset="0.933594"/><stop stop-opacity="1" stop-color="rgb(19.490051%, 18.740845%, 75.341797%)" offset="0.9375"/><stop stop-opacity="1" stop-color="rgb(19.570923%, 18.818665%, 75.654602%)" offset="0.941406"/><stop stop-opacity="1" stop-color="rgb(19.65332%, 18.896484%, 75.967407%)" offset="0.945312"/><stop stop-opacity="1" stop-color="rgb(19.734192%, 18.974304%, 76.280212%)" offset="0.949219"/><stop stop-opacity="1" stop-color="rgb(19.815063%, 19.052124%, 76.594543%)" offset="0.953125"/><stop stop-opacity="1" stop-color="rgb(19.895935%, 19.129944%, 76.907349%)" offset="0.957031"/><stop stop-opacity="1" stop-color="rgb(19.976807%, 19.20929%, 77.22168%)" offset="0.960938"/><stop stop-opacity="1" stop-color="rgb(20.057678%, 19.287109%, 77.534485%)" offset="0.964844"/><stop stop-opacity="1" stop-color="rgb(20.13855%, 19.364929%, 77.84729%)" offset="0.96875"/><stop stop-opacity="1" stop-color="rgb(20.219421%, 19.442749%, 78.160095%)" offset="0.972656"/><stop stop-opacity="1" stop-color="rgb(20.301819%, 19.520569%, 78.474426%)" offset="0.976562"/><stop stop-opacity="1" stop-color="rgb(20.38269%, 19.598389%, 78.787231%)" offset="0.980469"/><stop stop-opacity="1" stop-color="rgb(20.463562%, 19.676208%, 79.100037%)" offset="0.984375"/><stop stop-opacity="1" stop-color="rgb(20.544434%, 19.754028%, 79.412842%)" offset="0.988281"/><stop stop-opacity="1" stop-color="rgb(20.625305%, 19.831848%, 79.727173%)" offset="0.992188"/><stop stop-opacity="1" stop-color="rgb(20.706177%, 19.909668%, 80.039978%)" offset="0.996094"/><stop stop-opacity="1" stop-color="rgb(20.787048%, 19.987488%, 80.354309%)" offset="1"/></linearGradient><mask id="db9a382cd2"><g filter="url(#464f0b7612)"><rect x="-37.5" width="450" fill="#000000" y="-37.499999" height="449.999989" fill-opacity="0.28"/></g></mask><clipPath id="c2b157992f"><path d="M 0.601562 0.179688 L 270.105469 0.179688 L 270.105469 270.933594 L 0.601562 270.933594 Z M 0.601562 0.179688 " clip-rule="nonzero"/></clipPath><clipPath id="bbe66faf6e"><rect x="0" width="271" y="0" height="272"/></clipPath></defs><g clip-path="url(#c138cff1d4)"><g clip-path="url(#72451b6457)"><path fill="url(#fee7535bb7)" d="M 0 0.183594 L 0 375 L 374.113281 375 L 374.113281 0.183594 Z M 0 0.183594 " fill-rule="nonzero"/></g></g><g mask="url(#db9a382cd2)"><g transform="matrix(1, 0, 0, 1, 57, 52)"><g clip-path="url(#bbe66faf6e)"><g clip-path="url(#c2b157992f)"><path fill="#d9d9d9" d="M 270.253906 125.171875 C 270.261719 125.074219 270.242188 124.976562 270.210938 124.890625 C 270.207031 124.882812 270.210938 124.878906 270.207031 124.871094 L 243.320312 54.25 C 243.316406 54.242188 243.304688 54.234375 243.300781 54.226562 C 243.257812 54.121094 243.195312 54.023438 243.101562 53.949219 L 183.96875 6.902344 C 183.875 6.828125 183.761719 6.777344 183.640625 6.753906 C 183.628906 6.753906 183.621094 6.75 183.613281 6.75 L 135.347656 0.183594 C 135.25 0.175781 135.152344 0.179688 135.058594 0.207031 L 112.054688 6.746094 L 111.398438 6.746094 C 111.265625 6.746094 111.144531 6.78125 111.035156 6.847656 C 111.035156 6.847656 111.035156 6.847656 111.03125 6.847656 L 110.445312 7.199219 L 53.824219 23.296875 C 53.808594 23.300781 53.796875 23.316406 53.777344 23.324219 C 53.703125 23.351562 53.632812 23.390625 53.570312 23.445312 C 53.546875 23.464844 53.519531 23.484375 53.496094 23.507812 C 53.484375 23.523438 53.46875 23.527344 53.457031 23.542969 L 3.875 87.917969 C 3.859375 87.941406 3.855469 87.960938 3.84375 87.984375 C 3.824219 88.011719 3.800781 88.039062 3.789062 88.070312 C 3.78125 88.089844 3.777344 88.109375 3.769531 88.128906 C 3.757812 88.167969 3.75 88.207031 3.746094 88.246094 C 3.742188 88.269531 3.730469 88.289062 3.730469 88.3125 L 0.605469 144.929688 C 0.605469 144.980469 0.605469 145.03125 0.613281 145.082031 L 5.183594 173.714844 C 5.191406 173.753906 5.210938 173.785156 5.222656 173.820312 C 5.230469 173.84375 5.226562 173.871094 5.238281 173.890625 C 5.242188 173.898438 5.246094 173.902344 5.25 173.910156 C 5.25 173.917969 5.25 173.925781 5.257812 173.933594 L 28.339844 217.90625 C 28.378906 217.984375 28.433594 218.050781 28.5 218.109375 L 55.574219 242.050781 C 55.617188 242.101562 55.667969 242.140625 55.71875 242.179688 L 87.03125 263.28125 C 87.117188 263.339844 87.214844 263.378906 87.316406 263.394531 L 136.4375 271.035156 L 136.445312 271.035156 C 136.449219 271.035156 136.449219 271.035156 136.453125 271.035156 C 136.492188 271.042969 136.527344 271.046875 136.5625 271.046875 C 136.5625 271.046875 136.5625 271.046875 136.566406 271.046875 C 136.613281 271.046875 136.664062 271.039062 136.710938 271.03125 C 136.710938 271.03125 136.710938 271.03125 136.710938 271.027344 C 136.714844 271.027344 136.714844 271.027344 136.714844 271.027344 C 136.714844 271.027344 136.714844 271.027344 136.71875 271.027344 C 136.722656 271.023438 136.726562 271.023438 136.730469 271.023438 C 136.730469 271.023438 136.730469 271.023438 136.734375 271.023438 C 136.734375 271.023438 136.738281 271.023438 136.734375 271.023438 C 136.734375 271.023438 136.738281 271.023438 136.738281 271.023438 L 136.742188 271.019531 C 136.742188 271.019531 136.742188 271.019531 136.746094 271.019531 C 136.746094 271.019531 136.75 271.019531 136.75 271.019531 C 136.753906 271.015625 136.753906 271.015625 136.757812 271.015625 L 217.023438 247.554688 C 217.054688 247.546875 217.070312 247.515625 217.097656 247.503906 C 217.175781 247.46875 217.238281 247.425781 217.296875 247.363281 C 217.324219 247.339844 217.367188 247.332031 217.386719 247.300781 L 266.222656 182.890625 C 266.296875 182.789062 266.332031 182.671875 266.347656 182.550781 C 266.351562 182.535156 266.363281 182.527344 266.363281 182.511719 Z M 264.992188 181.90625 L 243.871094 187.246094 L 268.558594 129.25 Z M 179.292969 173.6875 L 101.46875 146.300781 L 160.164062 104.027344 Z M 160.167969 101.746094 L 101.636719 63.453125 L 177.734375 41.679688 Z M 159.328125 102.886719 L 100.664062 145.140625 L 100.664062 64.507812 Z M 99.25 145.382812 L 32.671875 112.703125 L 99.25 64.585938 Z M 113.667969 223.738281 L 50.203125 188.167969 L 99.480469 147.824219 Z M 100.878906 147.59375 L 178.863281 175.039062 L 115.125 223.835938 Z M 179.71875 176.164062 L 183.828125 234.515625 L 116.402344 224.636719 Z M 180.625 173.199219 L 161.53125 103.664062 L 226.460938 110.15625 Z M 227.367188 111.3125 L 241.765625 187.363281 L 181.542969 174.34375 Z M 242.921875 185.859375 L 228.683594 110.675781 L 268.605469 125.53125 Z M 227.46875 107.945312 L 180.410156 41.726562 L 241.785156 55.039062 Z M 226.28125 108.714844 L 161.496094 102.242188 L 179.046875 42.246094 Z M 100.882812 62.199219 L 111.90625 8.492188 L 176.820312 40.472656 Z M 99.425781 62.277344 L 49.632812 45.625 L 110.378906 8.894531 Z M 98.425781 63.433594 L 32.457031 111.109375 L 48.457031 46.722656 Z M 30.90625 111.496094 L 5.460938 88.335938 L 46.667969 48.058594 Z M 47.324219 45.441406 L 11.125 80.820312 L 52.367188 27.277344 Z M 30.460938 113.003906 L 6.53125 170.214844 L 5.167969 89.976562 Z M 31.113281 115.105469 L 47.972656 187.199219 L 6.824219 173.175781 Z M 32.332031 114.109375 L 98.65625 146.667969 L 49.382812 187.011719 Z M 112.804688 224.878906 L 56.699219 240.683594 L 49.839844 189.589844 Z M 114.261719 225.9375 L 135.171875 269.089844 L 58.429688 241.664062 Z M 136.828125 269.265625 L 115.859375 225.988281 L 182.777344 235.792969 Z M 185.207031 233.9375 L 181.105469 175.695312 L 241.070312 188.660156 Z M 240.835938 190.671875 L 216.449219 245.984375 L 186.019531 235.101562 Z M 243.167969 188.882812 L 263.878906 183.644531 L 219.90625 241.644531 Z M 228.609375 109.136719 L 242.773438 56.789062 L 268.332031 123.917969 Z M 184.042969 8.773438 L 239.847656 53.167969 L 179.566406 40.097656 Z M 135.300781 1.605469 L 173.078125 6.746094 L 117.226562 6.746094 Z M 182.703125 8.160156 L 178.210938 39.582031 L 114.433594 8.160156 Z M 49.113281 44.285156 L 54.59375 24.546875 L 105.859375 9.976562 Z M 2.019531 144.933594 L 4.058594 107.964844 L 5.003906 163.628906 Z M 29.53125 217.132812 L 10.796875 181.449219 L 51.558594 236.617188 Z M 7.792969 175 L 48.308594 188.808594 L 55.039062 238.949219 Z M 61.148438 244.136719 L 129.296875 268.488281 L 87.6875 262.019531 Z M 184.710938 236.132812 L 214.539062 246.808594 L 140.253906 268.519531 Z M 184.710938 236.132812 " fill-opacity="1" fill-rule="nonzero"/></g></g></g></g><g fill="#d9d9d9" fill-opacity="1"><g transform="translate(76.892303, 173.193129)"><g><path d="M 9.0625 -51.054688 L 0.703125 -51.054688 C 0.320312 -51.054688 0 -50.734375 0 -50.480469 L 0 -30.441406 L 9.765625 -30.441406 L 9.765625 -41.738281 C 20.867188 -42.3125 29.101562 -37.652344 29.101562 -25.527344 C 29.101562 -9.765625 15.953125 -9.125 9.765625 -9.382812 L 9.765625 -20.613281 L 0 -20.613281 L 0 -0.574219 C 0 -0.320312 0.320312 0 0.703125 0 L 9.0625 0 C 21.761719 0 38.929688 -3.703125 38.929688 -25.527344 C 38.929688 -48.183594 21.507812 -51.054688 9.0625 -51.054688 Z M 9.0625 -51.054688 "/></g></g></g><g fill="#d9d9d9" fill-opacity="1"><g transform="translate(117.792635, 173.193129)"><g><path d="M 20.804688 -8.742188 L 15.699219 -8.742188 L 15.699219 -51.054688 L 5.933594 -51.054688 L 5.933594 -8.742188 L 0.703125 -8.742188 C 0.320312 -8.742188 0 -8.488281 0 -8.167969 L 0 -0.574219 C 0 -0.320312 0.320312 0 0.703125 0 L 20.804688 0 C 21.25 0 21.507812 -0.320312 21.507812 -0.574219 L 21.507812 -8.167969 C 21.507812 -8.488281 21.25 -8.742188 20.804688 -8.742188 Z M 20.804688 -8.742188 "/></g></g></g><g fill="#d9d9d9" fill-opacity="1"><g transform="translate(140.380336, 173.193129)"><g><path d="M 38.929688 -41.671875 L 38.929688 -50.480469 C 38.929688 -50.734375 38.671875 -51.054688 38.226562 -51.054688 L 29.929688 -51.054688 C 17.230469 -51.054688 0 -47.351562 0 -25.527344 C 0 -2.871094 17.421875 0 29.929688 0 L 38.226562 0 C 38.671875 0 38.929688 -0.320312 38.929688 -0.574219 L 38.929688 -31.84375 L 19.335938 -31.84375 L 19.335938 -22.082031 L 29.164062 -22.082031 L 29.164062 -9.316406 C 18.058594 -8.742188 9.828125 -13.402344 9.828125 -25.527344 C 9.828125 -41.289062 22.972656 -41.929688 29.164062 -41.671875 Z M 38.929688 -41.671875 "/></g></g></g><g fill="#d9d9d9" fill-opacity="1"><g transform="translate(181.280668, 173.193129)"><g><path d="M 20.804688 -8.742188 L 15.699219 -8.742188 L 15.699219 -51.054688 L 5.933594 -51.054688 L 5.933594 -8.742188 L 0.703125 -8.742188 C 0.320312 -8.742188 0 -8.488281 0 -8.167969 L 0 -0.574219 C 0 -0.320312 0.320312 0 0.703125 0 L 20.804688 0 C 21.25 0 21.507812 -0.320312 21.507812 -0.574219 L 21.507812 -8.167969 C 21.507812 -8.488281 21.25 -8.742188 20.804688 -8.742188 Z M 20.804688 -8.742188 "/></g></g></g><g fill="#d9d9d9" fill-opacity="1"><g transform="translate(203.868369, 173.193129)"><g><path d="M 10.53125 -32.546875 L 10.53125 -0.574219 C 10.53125 -0.320312 10.785156 0 11.230469 0 L 19.464844 0 C 19.910156 0 20.230469 -0.320312 20.230469 -0.574219 L 20.230469 -32.546875 Z M 0.703125 -42.3125 L 29.996094 -42.3125 C 30.441406 -42.3125 30.695312 -42.566406 30.695312 -42.886719 L 30.695312 -50.480469 C 30.695312 -50.734375 30.441406 -51.054688 29.996094 -51.054688 L 0.703125 -51.054688 C 0.320312 -51.054688 0 -50.734375 0 -50.480469 L 0 -42.886719 C 0 -42.566406 0.320312 -42.3125 0.703125 -42.3125 Z M 0.703125 -42.3125 "/></g></g></g><g fill="#d9d9d9" fill-opacity="1"><g transform="translate(236.09095, 173.193129)"><g><path d="M 40.078125 -0.765625 L 20.675781 -50.671875 C 20.484375 -51.183594 19.59375 -51.183594 19.402344 -50.671875 L 0.0625 -0.765625 C -0.128906 -0.382812 0.128906 0 0.703125 0 L 9.445312 0 C 9.699219 0 10.019531 -0.128906 10.082031 -0.382812 L 20.039062 -28.84375 L 30.121094 -0.382812 C 30.1875 -0.128906 30.503906 0 30.695312 0 L 39.503906 0 C 39.949219 0 40.269531 -0.382812 40.078125 -0.765625 Z M 40.078125 -0.765625 "/></g></g></g><g fill="#d9d9d9" fill-opacity="1"><g transform="translate(278.203612, 173.193129)"><g><path d="M 27.570312 -9.507812 L 0 -9.507812 L 0 -0.574219 C 0 -0.320312 0.320312 0 0.703125 0 L 27.570312 0 C 28.015625 0 28.269531 -0.320312 28.269531 -0.574219 L 28.269531 -8.871094 C 28.269531 -9.191406 28.015625 -9.507812 27.570312 -9.507812 Z M 9.765625 -19.273438 L 9.765625 -50.480469 C 9.765625 -50.734375 9.507812 -51.054688 9.125 -51.054688 L 0.703125 -51.054688 C 0.320312 -51.054688 0 -50.734375 0 -50.480469 L 0 -19.273438 Z M 9.765625 -19.273438 "/></g></g></g><g fill="#d9d9d9" fill-opacity="1"><g transform="translate(16.415047, 262.469079)"><g><path d="M 24.25 -9.507812 L 9.765625 -9.507812 L 9.765625 -20.996094 L 29.804688 -20.996094 C 30.1875 -20.996094 30.503906 -21.316406 30.503906 -21.570312 L 30.503906 -29.675781 C 30.503906 -29.996094 30.1875 -30.25 29.804688 -30.25 L 9.765625 -30.25 L 9.765625 -41.800781 L 24.25 -41.800781 L 24.25 -51.054688 L 0.703125 -51.054688 C 0.320312 -51.054688 0 -50.734375 0 -50.480469 L 0 -0.574219 C 0 -0.320312 0.320312 0 0.703125 0 L 24.25 0 Z M 24.25 -9.507812 "/></g></g></g><g fill="#d9d9d9" fill-opacity="1"><g transform="translate(48.446189, 262.469079)"><g><path d="M 42.246094 -51.054688 L 34.015625 -51.054688 C 33.566406 -51.054688 33.25 -50.734375 33.25 -50.480469 L 33.25 -17.230469 L 9.699219 -50.863281 C 9.636719 -50.992188 9.253906 -51.054688 9.125 -51.054688 L 0.636719 -51.054688 C 0.320312 -51.054688 0 -50.734375 0 -50.480469 L 0 -12.253906 L 9.765625 -12.253906 L 9.765625 -33.824219 L 33.25 -0.191406 C 33.3125 -0.0625 33.695312 0 33.824219 0 L 42.246094 0 C 42.695312 0 42.949219 -0.320312 42.949219 -0.574219 L 42.949219 -50.480469 C 42.949219 -50.734375 42.695312 -51.054688 42.246094 -51.054688 Z M 42.246094 -51.054688 "/></g></g></g><g fill="#d9d9d9" fill-opacity="1"><g transform="translate(93.557784, 262.469079)"><g><path d="M 9.0625 -51.054688 L 0.703125 -51.054688 C 0.320312 -51.054688 0 -50.734375 0 -50.480469 L 0 -30.441406 L 9.765625 -30.441406 L 9.765625 -41.738281 C 20.867188 -42.3125 29.101562 -37.652344 29.101562 -25.527344 C 29.101562 -9.765625 15.953125 -9.125 9.765625 -9.382812 L 9.765625 -20.613281 L 0 -20.613281 L 0 -0.574219 C 0 -0.320312 0.320312 0 0.703125 0 L 9.0625 0 C 21.761719 0 38.929688 -3.703125 38.929688 -25.527344 C 38.929688 -48.183594 21.507812 -51.054688 9.0625 -51.054688 Z M 9.0625 -51.054688 "/></g></g></g><g fill="#d9d9d9" fill-opacity="1"><g transform="translate(134.458116, 262.469079)"><g><path d="M 24.25 -9.507812 L 9.765625 -9.507812 L 9.765625 -20.996094 L 29.804688 -20.996094 C 30.1875 -20.996094 30.503906 -21.316406 30.503906 -21.570312 L 30.503906 -29.675781 C 30.503906 -29.996094 30.1875 -30.25 29.804688 -30.25 L 9.765625 -30.25 L 9.765625 -41.800781 L 24.25 -41.800781 L 24.25 -51.054688 L 0.703125 -51.054688 C 0.320312 -51.054688 0 -50.734375 0 -50.480469 L 0 -0.574219 C 0 -0.320312 0.320312 0 0.703125 0 L 24.25 0 Z M 24.25 -9.507812 "/></g></g></g><g fill="#d9d9d9" fill-opacity="1"><g transform="translate(166.489259, 262.469079)"><g><path d="M 40.078125 -0.765625 L 20.675781 -50.671875 C 20.484375 -51.183594 19.59375 -51.183594 19.402344 -50.671875 L 0.0625 -0.765625 C -0.128906 -0.382812 0.128906 0 0.703125 0 L 9.445312 0 C 9.699219 0 10.019531 -0.128906 10.082031 -0.382812 L 20.039062 -28.84375 L 30.121094 -0.382812 C 30.1875 -0.128906 30.503906 0 30.695312 0 L 39.503906 0 C 39.949219 0 40.269531 -0.382812 40.078125 -0.765625 Z M 40.078125 -0.765625 "/></g></g></g><g fill="#d9d9d9" fill-opacity="1"><g transform="translate(208.601921, 262.469079)"><g><path d="M 26.613281 -41.546875 L 19.910156 -22.847656 L 9.957031 -50.671875 C 9.890625 -50.925781 9.636719 -51.054688 9.316406 -51.054688 L 0.636719 -51.054688 C 0.128906 -51.054688 -0.128906 -50.671875 0.0625 -50.289062 L 19.273438 -0.320312 C 19.527344 0.128906 20.292969 0.128906 20.484375 -0.320312 L 36.441406 -41.546875 Z M 26.613281 -41.546875 "/></g></g></g><g fill="#d9d9d9" fill-opacity="1"><g transform="translate(246.886175, 262.469079)"><g><path d="M 29.355469 -25.398438 C 29.355469 -28.078125 27.25 -30.25 24.570312 -30.25 C 21.890625 -30.25 19.785156 -28.078125 19.785156 -25.398438 C 19.785156 -22.78125 21.890625 -20.613281 24.570312 -20.613281 C 27.25 -20.613281 29.355469 -22.78125 29.355469 -25.398438 Z M 49.140625 -25.589844 C 49.140625 -38.289062 40.90625 -51.054688 24.632812 -51.054688 C 8.105469 -51.054688 0 -38.289062 0 -25.589844 C 0 -12.828125 8.105469 0 24.632812 0 C 40.90625 0 49.140625 -12.828125 49.140625 -25.589844 Z M 39.566406 -25.398438 C 39.566406 -17.167969 34.527344 -8.933594 24.632812 -8.933594 C 14.613281 -8.933594 9.636719 -17.167969 9.636719 -25.398438 C 9.636719 -33.757812 14.613281 -42.054688 24.632812 -42.054688 C 34.527344 -42.054688 39.566406 -33.757812 39.566406 -25.398438 Z M 39.566406 -25.398438 "/></g></g></g><g fill="#d9d9d9" fill-opacity="1"><g transform="translate(298.4423, 262.469079)"><g><path d="M 34.84375 -0.828125 C 31.652344 -7.914062 28.207031 -14.933594 25.015625 -22.144531 C 30.121094 -23.996094 34.398438 -28.078125 34.398438 -35.867188 C 34.398438 -50.925781 20.039062 -51.054688 17.167969 -51.054688 L 0.636719 -51.054688 C 0.320312 -51.054688 0 -50.734375 0 -50.480469 L 0 -41.800781 L 17.167969 -41.800781 C 18.699219 -41.800781 24.699219 -41.480469 24.699219 -35.867188 C 24.699219 -30.25 19.273438 -29.996094 17.167969 -29.996094 L 0 -29.996094 L 0 -0.574219 C 0 -0.320312 0.320312 0 0.636719 0 L 9 0 C 9.382812 0 9.699219 -0.320312 9.699219 -0.574219 L 9.699219 -20.613281 L 15.1875 -20.613281 L 24.507812 -0.382812 C 24.570312 -0.191406 24.953125 0 25.144531 0 L 34.269531 0 C 34.78125 0 35.035156 -0.382812 34.84375 -0.828125 Z M 34.84375 -0.828125 "/></g></g></g><g fill="#d9d9d9" fill-opacity="1"><g transform="translate(335.131368, 262.469079)"><g><path d="M 23.421875 -28.335938 C 19.785156 -30.058594 16.210938 -30.058594 15.890625 -30.058594 C 12.636719 -30.058594 9.507812 -31.972656 9.507812 -35.675781 C 9.507812 -39.757812 12.378906 -41.863281 15.890625 -41.863281 C 19.210938 -41.863281 22.015625 -40.140625 22.144531 -36.503906 C 22.144531 -36.3125 22.464844 -35.992188 22.847656 -35.992188 L 30.824219 -35.992188 C 31.269531 -35.992188 31.589844 -36.3125 31.527344 -36.503906 C 31.398438 -45.183594 24.632812 -51.054688 15.890625 -51.054688 C 7.722656 -51.054688 0 -45.246094 0 -35.675781 C 0 -29.738281 3 -25.207031 8.296875 -22.78125 C 11.996094 -21.058594 15.445312 -21.058594 15.890625 -21.058594 C 18.761719 -20.933594 22.273438 -18.636719 22.273438 -14.871094 C 22.273438 -11.488281 19.273438 -9.191406 15.890625 -9.191406 C 15.890625 -9.191406 15.890625 -9.191406 15.828125 -9.191406 L 15.828125 0 C 15.890625 0 15.890625 0 15.890625 0 C 24.058594 0 31.71875 -5.296875 31.71875 -14.871094 C 31.71875 -20.867188 28.78125 -25.847656 23.421875 -28.335938 Z M 23.421875 -28.335938 "/></g></g></g><g fill="#000000" fill-opacity="1"><g transform="translate(162.743381, 292.469076)"><g><path d="M 16.4375 -2.59375 L 16.4375 0 L 3.625 0 L 3.625 -17.46875 L 6.3125 -17.46875 L 6.3125 -2.59375 Z M 16.4375 -2.59375 "/></g></g></g><g fill="#000000" fill-opacity="1"><g transform="translate(181.856022, 292.469076)"><g><path d="M 16.4375 -2.59375 L 16.4375 0 L 3.625 0 L 3.625 -17.46875 L 6.3125 -17.46875 L 6.3125 -2.59375 Z M 16.4375 -2.59375 "/></g></g></g><g fill="#000000" fill-opacity="1"><g transform="translate(200.968664, 292.469076)"><g><path d="M 18.796875 -2.390625 C 18.378906 -1.992188 17.804688 -1.59375 17.078125 -1.1875 C 16.359375 -0.78125 15.53125 -0.4375 14.59375 -0.15625 C 13.664062 0.113281 12.675781 0.25 11.625 0.25 C 10.3125 0.25 9.09375 0.0390625 7.96875 -0.375 C 6.84375 -0.800781 5.859375 -1.40625 5.015625 -2.1875 C 4.171875 -2.976562 3.507812 -3.925781 3.03125 -5.03125 C 2.5625 -6.132812 2.328125 -7.367188 2.328125 -8.734375 C 2.328125 -10.015625 2.570312 -11.195312 3.0625 -12.28125 C 3.5625 -13.363281 4.25 -14.300781 5.125 -15.09375 C 6 -15.894531 7 -16.515625 8.125 -16.953125 C 9.257812 -17.390625 10.460938 -17.609375 11.734375 -17.609375 C 12.773438 -17.609375 13.765625 -17.460938 14.703125 -17.171875 C 15.648438 -16.890625 16.492188 -16.519531 17.234375 -16.0625 C 17.972656 -15.613281 18.566406 -15.140625 19.015625 -14.640625 L 17.3125 -12.546875 C 16.53125 -13.242188 15.671875 -13.816406 14.734375 -14.265625 C 13.796875 -14.722656 12.742188 -14.953125 11.578125 -14.953125 C 10.765625 -14.953125 9.96875 -14.804688 9.1875 -14.515625 C 8.40625 -14.234375 7.703125 -13.820312 7.078125 -13.28125 C 6.460938 -12.75 5.972656 -12.097656 5.609375 -11.328125 C 5.242188 -10.566406 5.0625 -9.703125 5.0625 -8.734375 C 5.0625 -7.335938 5.382812 -6.164062 6.03125 -5.21875 C 6.6875 -4.28125 7.53125 -3.578125 8.5625 -3.109375 C 9.601562 -2.648438 10.722656 -2.421875 11.921875 -2.421875 C 12.773438 -2.421875 13.539062 -2.53125 14.21875 -2.75 C 14.90625 -2.976562 15.519531 -3.265625 16.0625 -3.609375 C 16.601562 -3.953125 17.070312 -4.285156 17.46875 -4.609375 Z M 18.796875 -2.390625 "/></g></g></g></svg>