<svg xmlns="http://www.w3.org/2000/svg" xmlns:xlink="http://www.w3.org/1999/xlink" width="190" zoomAndPan="magnify" viewBox="0 0 142.5 30.000001" height="40" preserveAspectRatio="xMidYMid meet" version="1.0"><defs><filter x="0%" y="0%" width="100%" height="100%" id="9cf6bb2b7c"><feColorMatrix values="0 0 0 0 1 0 0 0 0 1 0 0 0 0 1 0 0 0 1 0" color-interpolation-filters="sRGB"/></filter><g/><clipPath id="42da014584"><path d="M 7.644531 0.9375 L 34.816406 0.9375 L 34.816406 28.113281 L 7.644531 28.113281 Z M 7.644531 0.9375 " clip-rule="nonzero"/></clipPath><clipPath id="03119680b8"><path d="M 7.644531 14.515625 C 7.644531 22.015625 13.722656 28.09375 21.222656 28.09375 L 21.226562 28.09375 C 28.722656 28.09375 34.804688 22.015625 34.804688 14.515625 C 34.804688 7.019531 28.722656 0.9375 21.226562 0.9375 L 21.222656 0.9375 C 13.722656 0.9375 7.644531 7.019531 7.644531 14.515625 Z M 7.644531 14.515625 " clip-rule="nonzero"/></clipPath><linearGradient x1="-0.0000043381" gradientTransform="matrix(0.0849144, 0, 0, 0.0849144, 7.645646, 0.939215)" y1="0" x2="319.818312" gradientUnits="userSpaceOnUse" y2="0" id="4ff6f567be"><stop stop-opacity="1" stop-color="rgb(0%, 0%, 0%)" offset="0"/><stop stop-opacity="1" stop-color="rgb(0.0808716%, 0.0778198%, 0.312805%)" offset="0.00390625"/><stop stop-opacity="1" stop-color="rgb(0.161743%, 0.15564%, 0.627136%)" offset="0.0078125"/><stop stop-opacity="1" stop-color="rgb(0.242615%, 0.233459%, 0.939941%)" offset="0.0117188"/><stop stop-opacity="1" stop-color="rgb(0.323486%, 0.311279%, 1.254272%)" offset="0.015625"/><stop stop-opacity="1" stop-color="rgb(0.404358%, 0.389099%, 1.568604%)" offset="0.0195312"/><stop stop-opacity="1" stop-color="rgb(0.486755%, 0.468445%, 1.882935%)" offset="0.0234375"/><stop stop-opacity="1" stop-color="rgb(0.567627%, 0.546265%, 2.19574%)" offset="0.0273438"/><stop stop-opacity="1" stop-color="rgb(0.648499%, 0.624084%, 2.510071%)" offset="0.03125"/><stop stop-opacity="1" stop-color="rgb(0.72937%, 0.701904%, 2.824402%)" offset="0.0351562"/><stop stop-opacity="1" stop-color="rgb(0.811768%, 0.779724%, 3.138733%)" offset="0.0390625"/><stop stop-opacity="1" stop-color="rgb(0.892639%, 0.857544%, 3.451538%)" offset="0.0429688"/><stop stop-opacity="1" stop-color="rgb(0.973511%, 0.93689%, 3.765869%)" offset="0.046875"/><stop stop-opacity="1" stop-color="rgb(1.054382%, 1.014709%, 4.078674%)" offset="0.0507812"/><stop stop-opacity="1" stop-color="rgb(1.13678%, 1.092529%, 4.393005%)" offset="0.0546875"/><stop stop-opacity="1" stop-color="rgb(1.217651%, 1.170349%, 4.707336%)" offset="0.0585938"/><stop stop-opacity="1" stop-color="rgb(1.298523%, 1.248169%, 5.021667%)" offset="0.0625"/><stop stop-opacity="1" stop-color="rgb(1.379395%, 1.325989%, 5.334473%)" offset="0.0664062"/><stop stop-opacity="1" stop-color="rgb(1.460266%, 1.405334%, 5.648804%)" offset="0.0703125"/><stop stop-opacity="1" stop-color="rgb(1.541138%, 1.483154%, 5.963135%)" offset="0.0742188"/><stop stop-opacity="1" stop-color="rgb(1.623535%, 1.560974%, 6.277466%)" offset="0.078125"/><stop stop-opacity="1" stop-color="rgb(1.704407%, 1.638794%, 6.590271%)" offset="0.0820313"/><stop stop-opacity="1" stop-color="rgb(1.785278%, 1.716614%, 6.904602%)" offset="0.0859375"/><stop stop-opacity="1" stop-color="rgb(1.86615%, 1.794434%, 7.217407%)" offset="0.0898438"/><stop stop-opacity="1" stop-color="rgb(1.948547%, 1.873779%, 7.531738%)" offset="0.09375"/><stop stop-opacity="1" stop-color="rgb(2.029419%, 1.951599%, 7.846069%)" offset="0.0976563"/><stop stop-opacity="1" stop-color="rgb(2.110291%, 2.029419%, 8.1604%)" offset="0.101563"/><stop stop-opacity="1" stop-color="rgb(2.191162%, 2.107239%, 8.473206%)" offset="0.105469"/><stop stop-opacity="1" stop-color="rgb(2.27356%, 2.185059%, 8.787537%)" offset="0.109375"/><stop stop-opacity="1" stop-color="rgb(2.354431%, 2.262878%, 9.101868%)" offset="0.113281"/><stop stop-opacity="1" stop-color="rgb(2.435303%, 2.342224%, 9.416199%)" offset="0.117188"/><stop stop-opacity="1" stop-color="rgb(2.516174%, 2.420044%, 9.729004%)" offset="0.121094"/><stop stop-opacity="1" stop-color="rgb(2.597046%, 2.497864%, 10.043335%)" offset="0.125"/><stop stop-opacity="1" stop-color="rgb(2.677917%, 2.575684%, 10.357666%)" offset="0.128906"/><stop stop-opacity="1" stop-color="rgb(2.760315%, 2.653503%, 10.671997%)" offset="0.132812"/><stop stop-opacity="1" stop-color="rgb(2.841187%, 2.731323%, 10.984802%)" offset="0.136719"/><stop stop-opacity="1" stop-color="rgb(2.922058%, 2.810669%, 11.299133%)" offset="0.140625"/><stop stop-opacity="1" stop-color="rgb(3.00293%, 2.888489%, 11.611938%)" offset="0.144531"/><stop stop-opacity="1" stop-color="rgb(3.085327%, 2.966309%, 11.92627%)" offset="0.148438"/><stop stop-opacity="1" stop-color="rgb(3.166199%, 3.044128%, 12.240601%)" offset="0.152344"/><stop stop-opacity="1" stop-color="rgb(3.24707%, 3.121948%, 12.554932%)" offset="0.15625"/><stop stop-opacity="1" stop-color="rgb(3.327942%, 3.199768%, 12.867737%)" offset="0.160156"/><stop stop-opacity="1" stop-color="rgb(3.410339%, 3.279114%, 13.182068%)" offset="0.164062"/><stop stop-opacity="1" stop-color="rgb(3.491211%, 3.356934%, 13.496399%)" offset="0.167969"/><stop stop-opacity="1" stop-color="rgb(3.572083%, 3.434753%, 13.81073%)" offset="0.171875"/><stop stop-opacity="1" stop-color="rgb(3.652954%, 3.512573%, 14.123535%)" offset="0.175781"/><stop stop-opacity="1" stop-color="rgb(3.735352%, 3.590393%, 14.437866%)" offset="0.179688"/><stop stop-opacity="1" stop-color="rgb(3.816223%, 3.668213%, 14.750671%)" offset="0.183594"/><stop stop-opacity="1" stop-color="rgb(3.897095%, 3.747559%, 15.065002%)" offset="0.1875"/><stop stop-opacity="1" stop-color="rgb(3.977966%, 3.825378%, 15.379333%)" offset="0.191406"/><stop stop-opacity="1" stop-color="rgb(4.058838%, 3.903198%, 15.693665%)" offset="0.195312"/><stop stop-opacity="1" stop-color="rgb(4.139709%, 3.981018%, 16.00647%)" offset="0.199219"/><stop stop-opacity="1" stop-color="rgb(4.222107%, 4.058838%, 16.320801%)" offset="0.203125"/><stop stop-opacity="1" stop-color="rgb(4.302979%, 4.136658%, 16.635132%)" offset="0.207031"/><stop stop-opacity="1" stop-color="rgb(4.38385%, 4.216003%, 16.949463%)" offset="0.210938"/><stop stop-opacity="1" stop-color="rgb(4.464722%, 4.293823%, 17.262268%)" offset="0.214844"/><stop stop-opacity="1" stop-color="rgb(4.547119%, 4.371643%, 17.576599%)" offset="0.21875"/><stop stop-opacity="1" stop-color="rgb(4.627991%, 4.449463%, 17.89093%)" offset="0.222656"/><stop stop-opacity="1" stop-color="rgb(4.708862%, 4.527283%, 18.205261%)" offset="0.226562"/><stop stop-opacity="1" stop-color="rgb(4.789734%, 4.605103%, 18.518066%)" offset="0.230469"/><stop stop-opacity="1" stop-color="rgb(4.872131%, 4.684448%, 18.832397%)" offset="0.234375"/><stop stop-opacity="1" stop-color="rgb(4.953003%, 4.762268%, 19.145203%)" offset="0.238281"/><stop stop-opacity="1" stop-color="rgb(5.033875%, 4.840088%, 19.459534%)" offset="0.242188"/><stop stop-opacity="1" stop-color="rgb(5.114746%, 4.917908%, 19.773865%)" offset="0.246094"/><stop stop-opacity="1" stop-color="rgb(5.195618%, 4.995728%, 20.088196%)" offset="0.25"/><stop stop-opacity="1" stop-color="rgb(5.276489%, 5.073547%, 20.401001%)" offset="0.253906"/><stop stop-opacity="1" stop-color="rgb(5.358887%, 5.152893%, 20.715332%)" offset="0.257812"/><stop stop-opacity="1" stop-color="rgb(5.439758%, 5.230713%, 21.029663%)" offset="0.261719"/><stop stop-opacity="1" stop-color="rgb(5.52063%, 5.308533%, 21.343994%)" offset="0.265625"/><stop stop-opacity="1" stop-color="rgb(5.601501%, 5.386353%, 21.656799%)" offset="0.269531"/><stop stop-opacity="1" stop-color="rgb(5.683899%, 5.464172%, 21.97113%)" offset="0.273438"/><stop stop-opacity="1" stop-color="rgb(5.764771%, 5.541992%, 22.283936%)" offset="0.277344"/><stop stop-opacity="1" stop-color="rgb(5.845642%, 5.621338%, 22.598267%)" offset="0.28125"/><stop stop-opacity="1" stop-color="rgb(5.926514%, 5.699158%, 22.912598%)" offset="0.285156"/><stop stop-opacity="1" stop-color="rgb(6.008911%, 5.776978%, 23.226929%)" offset="0.289063"/><stop stop-opacity="1" stop-color="rgb(6.089783%, 5.854797%, 23.539734%)" offset="0.292969"/><stop stop-opacity="1" stop-color="rgb(6.170654%, 5.932617%, 23.854065%)" offset="0.296875"/><stop stop-opacity="1" stop-color="rgb(6.251526%, 6.010437%, 24.168396%)" offset="0.300781"/><stop stop-opacity="1" stop-color="rgb(6.332397%, 6.089783%, 24.482727%)" offset="0.304688"/><stop stop-opacity="1" stop-color="rgb(6.413269%, 6.167603%, 24.795532%)" offset="0.308594"/><stop stop-opacity="1" stop-color="rgb(6.495667%, 6.245422%, 25.109863%)" offset="0.3125"/><stop stop-opacity="1" stop-color="rgb(6.576538%, 6.323242%, 25.422668%)" offset="0.316406"/><stop stop-opacity="1" stop-color="rgb(6.65741%, 6.402588%, 25.737%)" offset="0.320313"/><stop stop-opacity="1" stop-color="rgb(6.738281%, 6.480408%, 26.051331%)" offset="0.324219"/><stop stop-opacity="1" stop-color="rgb(6.820679%, 6.558228%, 26.365662%)" offset="0.328125"/><stop stop-opacity="1" stop-color="rgb(6.90155%, 6.636047%, 26.678467%)" offset="0.332031"/><stop stop-opacity="1" stop-color="rgb(6.982422%, 6.713867%, 26.992798%)" offset="0.335938"/><stop stop-opacity="1" stop-color="rgb(7.063293%, 6.791687%, 27.307129%)" offset="0.339844"/><stop stop-opacity="1" stop-color="rgb(7.145691%, 6.871033%, 27.62146%)" offset="0.34375"/><stop stop-opacity="1" stop-color="rgb(7.226562%, 6.948853%, 27.934265%)" offset="0.347656"/><stop stop-opacity="1" stop-color="rgb(7.307434%, 7.026672%, 28.248596%)" offset="0.351563"/><stop stop-opacity="1" stop-color="rgb(7.388306%, 7.104492%, 28.562927%)" offset="0.355469"/><stop stop-opacity="1" stop-color="rgb(7.470703%, 7.182312%, 28.877258%)" offset="0.359375"/><stop stop-opacity="1" stop-color="rgb(7.551575%, 7.260132%, 29.190063%)" offset="0.363281"/><stop stop-opacity="1" stop-color="rgb(7.632446%, 7.339478%, 29.504395%)" offset="0.367188"/><stop stop-opacity="1" stop-color="rgb(7.713318%, 7.417297%, 29.8172%)" offset="0.371094"/><stop stop-opacity="1" stop-color="rgb(7.794189%, 7.495117%, 30.131531%)" offset="0.375"/><stop stop-opacity="1" stop-color="rgb(7.875061%, 7.572937%, 30.445862%)" offset="0.378906"/><stop stop-opacity="1" stop-color="rgb(7.957458%, 7.650757%, 30.760193%)" offset="0.382813"/><stop stop-opacity="1" stop-color="rgb(8.03833%, 7.728577%, 31.072998%)" offset="0.386719"/><stop stop-opacity="1" stop-color="rgb(8.119202%, 7.807922%, 31.387329%)" offset="0.390625"/><stop stop-opacity="1" stop-color="rgb(8.200073%, 7.885742%, 31.70166%)" offset="0.394531"/><stop stop-opacity="1" stop-color="rgb(8.282471%, 7.963562%, 32.015991%)" offset="0.398438"/><stop stop-opacity="1" stop-color="rgb(8.363342%, 8.041382%, 32.328796%)" offset="0.402344"/><stop stop-opacity="1" stop-color="rgb(8.444214%, 8.119202%, 32.643127%)" offset="0.40625"/><stop stop-opacity="1" stop-color="rgb(8.525085%, 8.197021%, 32.955933%)" offset="0.410156"/><stop stop-opacity="1" stop-color="rgb(8.607483%, 8.276367%, 33.270264%)" offset="0.414063"/><stop stop-opacity="1" stop-color="rgb(8.688354%, 8.354187%, 33.584595%)" offset="0.417969"/><stop stop-opacity="1" stop-color="rgb(8.769226%, 8.432007%, 33.898926%)" offset="0.421875"/><stop stop-opacity="1" stop-color="rgb(8.850098%, 8.509827%, 34.211731%)" offset="0.425781"/><stop stop-opacity="1" stop-color="rgb(8.930969%, 8.587646%, 34.526062%)" offset="0.429688"/><stop stop-opacity="1" stop-color="rgb(9.011841%, 8.665466%, 34.840393%)" offset="0.433594"/><stop stop-opacity="1" stop-color="rgb(9.094238%, 8.744812%, 35.154724%)" offset="0.4375"/><stop stop-opacity="1" stop-color="rgb(9.17511%, 8.822632%, 35.467529%)" offset="0.441406"/><stop stop-opacity="1" stop-color="rgb(9.255981%, 8.900452%, 35.78186%)" offset="0.445313"/><stop stop-opacity="1" stop-color="rgb(9.336853%, 8.978271%, 36.096191%)" offset="0.449219"/><stop stop-opacity="1" stop-color="rgb(9.41925%, 9.056091%, 36.410522%)" offset="0.453125"/><stop stop-opacity="1" stop-color="rgb(9.500122%, 9.133911%, 36.723328%)" offset="0.457031"/><stop stop-opacity="1" stop-color="rgb(9.580994%, 9.213257%, 37.037659%)" offset="0.460938"/><stop stop-opacity="1" stop-color="rgb(9.661865%, 9.291077%, 37.350464%)" offset="0.464844"/><stop stop-opacity="1" stop-color="rgb(9.744263%, 9.368896%, 37.664795%)" offset="0.46875"/><stop stop-opacity="1" stop-color="rgb(9.825134%, 9.446716%, 37.979126%)" offset="0.472656"/><stop stop-opacity="1" stop-color="rgb(9.906006%, 9.524536%, 38.293457%)" offset="0.476563"/><stop stop-opacity="1" stop-color="rgb(9.986877%, 9.602356%, 38.606262%)" offset="0.480469"/><stop stop-opacity="1" stop-color="rgb(10.069275%, 9.681702%, 38.920593%)" offset="0.484375"/><stop stop-opacity="1" stop-color="rgb(10.150146%, 9.759521%, 39.234924%)" offset="0.488281"/><stop stop-opacity="1" stop-color="rgb(10.231018%, 9.837341%, 39.549255%)" offset="0.492188"/><stop stop-opacity="1" stop-color="rgb(10.31189%, 9.915161%, 39.862061%)" offset="0.496094"/><stop stop-opacity="1" stop-color="rgb(10.392761%, 9.992981%, 40.176392%)" offset="0.5"/><stop stop-opacity="1" stop-color="rgb(10.473633%, 10.070801%, 40.489197%)" offset="0.503906"/><stop stop-opacity="1" stop-color="rgb(10.55603%, 10.150146%, 40.803528%)" offset="0.507812"/><stop stop-opacity="1" stop-color="rgb(10.636902%, 10.227966%, 41.117859%)" offset="0.511719"/><stop stop-opacity="1" stop-color="rgb(10.717773%, 10.305786%, 41.43219%)" offset="0.515625"/><stop stop-opacity="1" stop-color="rgb(10.798645%, 10.383606%, 41.744995%)" offset="0.519531"/><stop stop-opacity="1" stop-color="rgb(10.881042%, 10.461426%, 42.059326%)" offset="0.523438"/><stop stop-opacity="1" stop-color="rgb(10.961914%, 10.539246%, 42.373657%)" offset="0.527344"/><stop stop-opacity="1" stop-color="rgb(11.042786%, 10.618591%, 42.687988%)" offset="0.53125"/><stop stop-opacity="1" stop-color="rgb(11.123657%, 10.696411%, 43.000793%)" offset="0.535156"/><stop stop-opacity="1" stop-color="rgb(11.206055%, 10.774231%, 43.315125%)" offset="0.539062"/><stop stop-opacity="1" stop-color="rgb(11.286926%, 10.852051%, 43.62793%)" offset="0.542969"/><stop stop-opacity="1" stop-color="rgb(11.367798%, 10.929871%, 43.942261%)" offset="0.546875"/><stop stop-opacity="1" stop-color="rgb(11.448669%, 11.00769%, 44.256592%)" offset="0.550781"/><stop stop-opacity="1" stop-color="rgb(11.529541%, 11.087036%, 44.570923%)" offset="0.554688"/><stop stop-opacity="1" stop-color="rgb(11.610413%, 11.164856%, 44.883728%)" offset="0.558594"/><stop stop-opacity="1" stop-color="rgb(11.69281%, 11.242676%, 45.198059%)" offset="0.5625"/><stop stop-opacity="1" stop-color="rgb(11.773682%, 11.320496%, 45.51239%)" offset="0.566406"/><stop stop-opacity="1" stop-color="rgb(11.854553%, 11.398315%, 45.826721%)" offset="0.570312"/><stop stop-opacity="1" stop-color="rgb(11.935425%, 11.476135%, 46.139526%)" offset="0.574219"/><stop stop-opacity="1" stop-color="rgb(12.017822%, 11.555481%, 46.453857%)" offset="0.578125"/><stop stop-opacity="1" stop-color="rgb(12.098694%, 11.633301%, 46.768188%)" offset="0.582031"/><stop stop-opacity="1" stop-color="rgb(12.179565%, 11.711121%, 47.08252%)" offset="0.585938"/><stop stop-opacity="1" stop-color="rgb(12.260437%, 11.78894%, 47.395325%)" offset="0.589844"/><stop stop-opacity="1" stop-color="rgb(12.342834%, 11.86676%, 47.709656%)" offset="0.59375"/><stop stop-opacity="1" stop-color="rgb(12.423706%, 11.94458%, 48.022461%)" offset="0.597656"/><stop stop-opacity="1" stop-color="rgb(12.504578%, 12.023926%, 48.336792%)" offset="0.601562"/><stop stop-opacity="1" stop-color="rgb(12.585449%, 12.101746%, 48.651123%)" offset="0.605469"/><stop stop-opacity="1" stop-color="rgb(12.666321%, 12.179565%, 48.965454%)" offset="0.609375"/><stop stop-opacity="1" stop-color="rgb(12.747192%, 12.257385%, 49.278259%)" offset="0.613281"/><stop stop-opacity="1" stop-color="rgb(12.82959%, 12.336731%, 49.59259%)" offset="0.617188"/><stop stop-opacity="1" stop-color="rgb(12.910461%, 12.414551%, 49.906921%)" offset="0.621094"/><stop stop-opacity="1" stop-color="rgb(12.991333%, 12.492371%, 50.221252%)" offset="0.625"/><stop stop-opacity="1" stop-color="rgb(13.072205%, 12.57019%, 50.534058%)" offset="0.628906"/><stop stop-opacity="1" stop-color="rgb(13.154602%, 12.64801%, 50.848389%)" offset="0.632812"/><stop stop-opacity="1" stop-color="rgb(13.235474%, 12.72583%, 51.161194%)" offset="0.636719"/><stop stop-opacity="1" stop-color="rgb(13.316345%, 12.805176%, 51.475525%)" offset="0.640625"/><stop stop-opacity="1" stop-color="rgb(13.397217%, 12.882996%, 51.789856%)" offset="0.644531"/><stop stop-opacity="1" stop-color="rgb(13.479614%, 12.960815%, 52.104187%)" offset="0.648438"/><stop stop-opacity="1" stop-color="rgb(13.560486%, 13.038635%, 52.416992%)" offset="0.652344"/><stop stop-opacity="1" stop-color="rgb(13.641357%, 13.116455%, 52.731323%)" offset="0.65625"/><stop stop-opacity="1" stop-color="rgb(13.722229%, 13.194275%, 53.045654%)" offset="0.660156"/><stop stop-opacity="1" stop-color="rgb(13.804626%, 13.273621%, 53.359985%)" offset="0.664062"/><stop stop-opacity="1" stop-color="rgb(13.885498%, 13.35144%, 53.672791%)" offset="0.667969"/><stop stop-opacity="1" stop-color="rgb(13.96637%, 13.42926%, 53.987122%)" offset="0.671875"/><stop stop-opacity="1" stop-color="rgb(14.047241%, 13.50708%, 54.301453%)" offset="0.675781"/><stop stop-opacity="1" stop-color="rgb(14.128113%, 13.5849%, 54.615784%)" offset="0.679688"/><stop stop-opacity="1" stop-color="rgb(14.208984%, 13.66272%, 54.928589%)" offset="0.683594"/><stop stop-opacity="1" stop-color="rgb(14.291382%, 13.742065%, 55.24292%)" offset="0.6875"/><stop stop-opacity="1" stop-color="rgb(14.372253%, 13.819885%, 55.555725%)" offset="0.691406"/><stop stop-opacity="1" stop-color="rgb(14.453125%, 13.897705%, 55.870056%)" offset="0.695312"/><stop stop-opacity="1" stop-color="rgb(14.533997%, 13.975525%, 56.184387%)" offset="0.699219"/><stop stop-opacity="1" stop-color="rgb(14.616394%, 14.053345%, 56.498718%)" offset="0.703125"/><stop stop-opacity="1" stop-color="rgb(14.697266%, 14.131165%, 56.811523%)" offset="0.707031"/><stop stop-opacity="1" stop-color="rgb(14.778137%, 14.21051%, 57.125854%)" offset="0.710938"/><stop stop-opacity="1" stop-color="rgb(14.859009%, 14.28833%, 57.440186%)" offset="0.714844"/><stop stop-opacity="1" stop-color="rgb(14.941406%, 14.36615%, 57.754517%)" offset="0.71875"/><stop stop-opacity="1" stop-color="rgb(15.022278%, 14.44397%, 58.067322%)" offset="0.722656"/><stop stop-opacity="1" stop-color="rgb(15.103149%, 14.52179%, 58.381653%)" offset="0.726562"/><stop stop-opacity="1" stop-color="rgb(15.184021%, 14.599609%, 58.694458%)" offset="0.730469"/><stop stop-opacity="1" stop-color="rgb(15.264893%, 14.678955%, 59.008789%)" offset="0.734375"/><stop stop-opacity="1" stop-color="rgb(15.345764%, 14.756775%, 59.32312%)" offset="0.738281"/><stop stop-opacity="1" stop-color="rgb(15.428162%, 14.834595%, 59.637451%)" offset="0.742188"/><stop stop-opacity="1" stop-color="rgb(15.509033%, 14.912415%, 59.950256%)" offset="0.746094"/><stop stop-opacity="1" stop-color="rgb(15.589905%, 14.990234%, 60.264587%)" offset="0.75"/><stop stop-opacity="1" stop-color="rgb(15.670776%, 15.068054%, 60.578918%)" offset="0.753906"/><stop stop-opacity="1" stop-color="rgb(15.753174%, 15.1474%, 60.89325%)" offset="0.757812"/><stop stop-opacity="1" stop-color="rgb(15.834045%, 15.22522%, 61.206055%)" offset="0.761719"/><stop stop-opacity="1" stop-color="rgb(15.914917%, 15.30304%, 61.520386%)" offset="0.765625"/><stop stop-opacity="1" stop-color="rgb(15.995789%, 15.380859%, 61.834717%)" offset="0.769531"/><stop stop-opacity="1" stop-color="rgb(16.078186%, 15.458679%, 62.149048%)" offset="0.773438"/><stop stop-opacity="1" stop-color="rgb(16.159058%, 15.536499%, 62.461853%)" offset="0.777344"/><stop stop-opacity="1" stop-color="rgb(16.239929%, 15.615845%, 62.776184%)" offset="0.78125"/><stop stop-opacity="1" stop-color="rgb(16.320801%, 15.693665%, 63.088989%)" offset="0.785156"/><stop stop-opacity="1" stop-color="rgb(16.401672%, 15.771484%, 63.40332%)" offset="0.789062"/><stop stop-opacity="1" stop-color="rgb(16.482544%, 15.849304%, 63.717651%)" offset="0.792969"/><stop stop-opacity="1" stop-color="rgb(16.564941%, 15.927124%, 64.031982%)" offset="0.796875"/><stop stop-opacity="1" stop-color="rgb(16.645813%, 16.004944%, 64.344788%)" offset="0.800781"/><stop stop-opacity="1" stop-color="rgb(16.726685%, 16.08429%, 64.659119%)" offset="0.804688"/><stop stop-opacity="1" stop-color="rgb(16.807556%, 16.162109%, 64.97345%)" offset="0.808594"/><stop stop-opacity="1" stop-color="rgb(16.889954%, 16.239929%, 65.287781%)" offset="0.8125"/><stop stop-opacity="1" stop-color="rgb(16.970825%, 16.317749%, 65.600586%)" offset="0.816406"/><stop stop-opacity="1" stop-color="rgb(17.051697%, 16.395569%, 65.914917%)" offset="0.820312"/><stop stop-opacity="1" stop-color="rgb(17.132568%, 16.473389%, 66.227722%)" offset="0.824219"/><stop stop-opacity="1" stop-color="rgb(17.214966%, 16.552734%, 66.542053%)" offset="0.828125"/><stop stop-opacity="1" stop-color="rgb(17.295837%, 16.630554%, 66.856384%)" offset="0.832031"/><stop stop-opacity="1" stop-color="rgb(17.376709%, 16.708374%, 67.170715%)" offset="0.835938"/><stop stop-opacity="1" stop-color="rgb(17.457581%, 16.786194%, 67.483521%)" offset="0.839844"/><stop stop-opacity="1" stop-color="rgb(17.539978%, 16.864014%, 67.797852%)" offset="0.84375"/><stop stop-opacity="1" stop-color="rgb(17.62085%, 16.941833%, 68.112183%)" offset="0.847656"/><stop stop-opacity="1" stop-color="rgb(17.701721%, 17.021179%, 68.426514%)" offset="0.851562"/><stop stop-opacity="1" stop-color="rgb(17.782593%, 17.098999%, 68.739319%)" offset="0.855469"/><stop stop-opacity="1" stop-color="rgb(17.863464%, 17.176819%, 69.05365%)" offset="0.859375"/><stop stop-opacity="1" stop-color="rgb(17.944336%, 17.254639%, 69.366455%)" offset="0.863281"/><stop stop-opacity="1" stop-color="rgb(18.026733%, 17.332458%, 69.680786%)" offset="0.867188"/><stop stop-opacity="1" stop-color="rgb(18.107605%, 17.410278%, 69.995117%)" offset="0.871094"/><stop stop-opacity="1" stop-color="rgb(18.188477%, 17.489624%, 70.309448%)" offset="0.875"/><stop stop-opacity="1" stop-color="rgb(18.269348%, 17.567444%, 70.622253%)" offset="0.878906"/><stop stop-opacity="1" stop-color="rgb(18.351746%, 17.645264%, 70.936584%)" offset="0.882812"/><stop stop-opacity="1" stop-color="rgb(18.432617%, 17.723083%, 71.250916%)" offset="0.886719"/><stop stop-opacity="1" stop-color="rgb(18.513489%, 17.800903%, 71.565247%)" offset="0.890625"/><stop stop-opacity="1" stop-color="rgb(18.59436%, 17.878723%, 71.878052%)" offset="0.894531"/><stop stop-opacity="1" stop-color="rgb(18.676758%, 17.958069%, 72.192383%)" offset="0.898438"/><stop stop-opacity="1" stop-color="rgb(18.757629%, 18.035889%, 72.506714%)" offset="0.902344"/><stop stop-opacity="1" stop-color="rgb(18.838501%, 18.113708%, 72.821045%)" offset="0.90625"/><stop stop-opacity="1" stop-color="rgb(18.919373%, 18.191528%, 73.13385%)" offset="0.910156"/><stop stop-opacity="1" stop-color="rgb(19.000244%, 18.269348%, 73.448181%)" offset="0.914062"/><stop stop-opacity="1" stop-color="rgb(19.081116%, 18.347168%, 73.760986%)" offset="0.917969"/><stop stop-opacity="1" stop-color="rgb(19.163513%, 18.426514%, 74.075317%)" offset="0.921875"/><stop stop-opacity="1" stop-color="rgb(19.244385%, 18.504333%, 74.389648%)" offset="0.925781"/><stop stop-opacity="1" stop-color="rgb(19.325256%, 18.582153%, 74.703979%)" offset="0.929688"/><stop stop-opacity="1" stop-color="rgb(19.406128%, 18.659973%, 75.016785%)" offset="0.933594"/><stop stop-opacity="1" stop-color="rgb(19.488525%, 18.739319%, 75.331116%)" offset="0.9375"/><stop stop-opacity="1" stop-color="rgb(19.569397%, 18.817139%, 75.645447%)" offset="0.941406"/><stop stop-opacity="1" stop-color="rgb(19.650269%, 18.894958%, 75.959778%)" offset="0.945312"/><stop stop-opacity="1" stop-color="rgb(19.73114%, 18.972778%, 76.272583%)" offset="0.949219"/><stop stop-opacity="1" stop-color="rgb(19.813538%, 19.050598%, 76.586914%)" offset="0.953125"/><stop stop-opacity="1" stop-color="rgb(19.894409%, 19.128418%, 76.899719%)" offset="0.957031"/><stop stop-opacity="1" stop-color="rgb(19.975281%, 19.207764%, 77.21405%)" offset="0.960938"/><stop stop-opacity="1" stop-color="rgb(20.056152%, 19.285583%, 77.528381%)" offset="0.964844"/><stop stop-opacity="1" stop-color="rgb(20.13855%, 19.363403%, 77.842712%)" offset="0.96875"/><stop stop-opacity="1" stop-color="rgb(20.219421%, 19.441223%, 78.155518%)" offset="0.972656"/><stop stop-opacity="1" stop-color="rgb(20.300293%, 19.519043%, 78.469849%)" offset="0.976562"/><stop stop-opacity="1" stop-color="rgb(20.381165%, 19.596863%, 78.78418%)" offset="0.980469"/><stop stop-opacity="1" stop-color="rgb(20.462036%, 19.676208%, 79.098511%)" offset="0.984375"/><stop stop-opacity="1" stop-color="rgb(20.542908%, 19.754028%, 79.411316%)" offset="0.988281"/><stop stop-opacity="1" stop-color="rgb(20.625305%, 19.831848%, 79.725647%)" offset="0.992188"/><stop stop-opacity="1" stop-color="rgb(20.706177%, 19.909668%, 80.039978%)" offset="0.996094"/><stop stop-opacity="1" stop-color="rgb(20.787048%, 19.987488%, 80.354309%)" offset="1"/></linearGradient><mask id="f79b99f8a5"><g filter="url(#9cf6bb2b7c)"><rect x="-14.25" width="171" fill="#000000" y="-3" height="36.000001" fill-opacity="0.28"/></g></mask><clipPath id="417d38afbf"><path d="M 0.867188 0.707031 L 20.398438 0.707031 L 20.398438 20.320312 L 0.867188 20.320312 Z M 0.867188 0.707031 " clip-rule="nonzero"/></clipPath><clipPath id="fa049924c5"><rect x="0" width="21" y="0" height="21"/></clipPath></defs><g clip-path="url(#42da014584)"><g clip-path="url(#03119680b8)"><path fill="url(#4ff6f567be)" d="M 7.644531 0.9375 L 7.644531 28.09375 L 34.804688 28.09375 L 34.804688 0.9375 Z M 7.644531 0.9375 " fill-rule="nonzero"/></g></g><g mask="url(#f79b99f8a5)"><g transform="matrix(1, 0, 0, 1, 11, 4)"><g clip-path="url(#fa049924c5)"><g clip-path="url(#417d38afbf)"><path fill="#d9d9d9" d="M 20.40625 9.761719 C 20.410156 9.753906 20.40625 9.746094 20.40625 9.742188 C 20.40625 9.742188 20.40625 9.738281 20.40625 9.738281 L 18.457031 4.625 C 18.457031 4.621094 18.457031 4.621094 18.457031 4.621094 C 18.453125 4.613281 18.449219 4.605469 18.441406 4.601562 L 14.15625 1.191406 C 14.148438 1.1875 14.140625 1.183594 14.132812 1.183594 L 10.632812 0.707031 C 10.628906 0.707031 10.621094 0.707031 10.613281 0.707031 L 8.945312 1.179688 L 8.898438 1.179688 C 8.890625 1.179688 8.882812 1.183594 8.875 1.1875 C 8.875 1.1875 8.875 1.1875 8.871094 1.1875 L 8.832031 1.214844 L 4.730469 2.378906 C 4.726562 2.382812 4.726562 2.382812 4.726562 2.382812 C 4.71875 2.382812 4.714844 2.386719 4.710938 2.390625 C 4.707031 2.394531 4.707031 2.394531 4.703125 2.394531 C 4.703125 2.398438 4.703125 2.398438 4.703125 2.398438 L 1.109375 7.0625 C 1.109375 7.0625 1.109375 7.066406 1.109375 7.066406 C 1.105469 7.070312 1.105469 7.070312 1.105469 7.074219 C 1.101562 7.074219 1.101562 7.078125 1.101562 7.078125 C 1.101562 7.082031 1.101562 7.082031 1.101562 7.085938 C 1.101562 7.085938 1.097656 7.089844 1.097656 7.089844 L 0.875 11.191406 C 0.871094 11.195312 0.875 11.199219 0.875 11.203125 L 1.203125 13.277344 C 1.207031 13.28125 1.207031 13.28125 1.207031 13.285156 C 1.207031 13.289062 1.207031 13.289062 1.207031 13.289062 C 1.207031 13.292969 1.210938 13.292969 1.210938 13.292969 L 2.882812 16.480469 C 2.886719 16.484375 2.890625 16.488281 2.894531 16.496094 L 4.855469 18.230469 C 4.859375 18.230469 4.863281 18.234375 4.867188 18.238281 L 7.132812 19.765625 C 7.140625 19.769531 7.148438 19.773438 7.15625 19.773438 L 10.714844 20.328125 C 10.71875 20.328125 10.71875 20.328125 10.722656 20.328125 C 10.726562 20.328125 10.730469 20.328125 10.734375 20.328125 C 10.738281 20.328125 10.738281 20.328125 10.738281 20.328125 L 16.550781 18.628906 C 16.554688 18.625 16.554688 18.625 16.558594 18.625 C 16.5625 18.621094 16.566406 18.617188 16.570312 18.613281 C 16.574219 18.613281 16.578125 18.609375 16.578125 18.609375 L 20.117188 13.941406 C 20.121094 13.933594 20.125 13.925781 20.125 13.917969 C 20.125 13.917969 20.125 13.917969 20.125 13.914062 Z M 20.027344 13.871094 L 18.496094 14.257812 L 20.285156 10.058594 Z M 13.816406 13.277344 L 8.179688 11.292969 L 12.433594 8.230469 Z M 12.433594 8.0625 L 8.191406 5.289062 L 13.707031 3.710938 Z M 12.371094 8.148438 L 8.121094 11.207031 L 8.121094 5.367188 Z M 8.019531 11.226562 L 3.195312 8.859375 L 8.019531 5.371094 Z M 9.0625 16.902344 L 4.464844 14.324219 L 8.035156 11.402344 Z M 8.136719 11.386719 L 13.789062 13.375 L 9.167969 16.910156 Z M 13.847656 13.457031 L 14.148438 17.683594 L 9.261719 16.96875 Z M 13.914062 13.242188 L 12.53125 8.203125 L 17.234375 8.671875 Z M 17.300781 8.757812 L 18.34375 14.265625 L 13.980469 13.324219 Z M 18.429688 14.15625 L 17.394531 8.710938 L 20.289062 9.785156 Z M 17.308594 8.511719 L 13.898438 3.714844 L 18.34375 4.679688 Z M 17.222656 8.570312 L 12.527344 8.101562 L 13.800781 3.753906 Z M 8.136719 5.199219 L 8.9375 1.308594 L 13.640625 3.625 Z M 8.03125 5.203125 L 4.425781 4 L 8.824219 1.335938 Z M 7.960938 5.289062 L 3.179688 8.742188 L 4.339844 4.078125 Z M 3.066406 8.769531 L 1.226562 7.09375 L 4.210938 4.175781 Z M 4.257812 3.984375 L 1.636719 6.546875 L 4.621094 2.667969 Z M 3.035156 8.878906 L 1.300781 13.023438 L 1.203125 7.210938 Z M 3.082031 9.03125 L 4.304688 14.253906 L 1.324219 13.238281 Z M 3.171875 8.960938 L 7.976562 11.320312 L 4.40625 14.242188 Z M 9 16.984375 L 4.9375 18.128906 L 4.441406 14.429688 Z M 9.105469 17.0625 L 10.621094 20.1875 L 5.0625 18.199219 Z M 10.742188 20.199219 L 9.222656 17.066406 L 14.070312 17.773438 Z M 14.246094 17.640625 L 13.949219 13.421875 L 18.292969 14.359375 Z M 18.277344 14.507812 L 16.511719 18.515625 L 14.304688 17.726562 Z M 18.445312 14.375 L 19.945312 13.996094 L 16.761719 18.199219 Z M 17.390625 8.597656 L 18.417969 4.808594 L 20.269531 9.671875 Z M 14.164062 1.328125 L 18.207031 4.546875 L 13.839844 3.597656 Z M 10.632812 0.808594 L 13.367188 1.179688 L 9.320312 1.179688 Z M 14.066406 1.285156 L 13.738281 3.5625 L 9.121094 1.285156 Z M 4.386719 3.902344 L 4.785156 2.472656 L 8.5 1.414062 Z M 0.976562 11.191406 L 1.125 8.515625 L 1.191406 12.546875 Z M 2.96875 16.421875 L 1.613281 13.839844 L 4.5625 17.835938 Z M 1.394531 13.371094 L 4.328125 14.371094 L 4.816406 18.003906 Z M 5.257812 18.378906 L 10.195312 20.144531 L 7.183594 19.675781 Z M 14.210938 17.800781 L 16.371094 18.574219 L 10.988281 20.144531 Z M 14.210938 17.800781 " fill-opacity="1" fill-rule="nonzero"/></g></g></g></g><g fill="#d9d9d9" fill-opacity="1"><g transform="translate(13.270288, 13.472955)"><g><path d="M 0.65625 -3.699219 L 0.0507812 -3.699219 C 0.0234375 -3.699219 0 -3.675781 0 -3.65625 L 0 -2.207031 L 0.707031 -2.207031 L 0.707031 -3.023438 C 1.511719 -3.066406 2.109375 -2.726562 2.109375 -1.847656 C 2.109375 -0.707031 1.15625 -0.660156 0.707031 -0.679688 L 0.707031 -1.492188 L 0 -1.492188 L 0 -0.0429688 C 0 -0.0234375 0.0234375 0 0.0507812 0 L 0.65625 0 C 1.578125 0 2.820312 -0.269531 2.820312 -1.847656 C 2.820312 -3.492188 1.558594 -3.699219 0.65625 -3.699219 Z M 0.65625 -3.699219 "/></g></g></g><g fill="#d9d9d9" fill-opacity="1"><g transform="translate(16.233352, 13.472955)"><g><path d="M 1.507812 -0.632812 L 1.136719 -0.632812 L 1.136719 -3.699219 L 0.429688 -3.699219 L 0.429688 -0.632812 L 0.0507812 -0.632812 C 0.0234375 -0.632812 0 -0.613281 0 -0.589844 L 0 -0.0429688 C 0 -0.0234375 0.0234375 0 0.0507812 0 L 1.507812 0 C 1.539062 0 1.558594 -0.0234375 1.558594 -0.0429688 L 1.558594 -0.589844 C 1.558594 -0.613281 1.539062 -0.632812 1.507812 -0.632812 Z M 1.507812 -0.632812 "/></g></g></g><g fill="#d9d9d9" fill-opacity="1"><g transform="translate(17.86974, 13.472955)"><g><path d="M 2.820312 -3.019531 L 2.820312 -3.65625 C 2.820312 -3.675781 2.800781 -3.699219 2.769531 -3.699219 L 2.167969 -3.699219 C 1.25 -3.699219 0 -3.429688 0 -1.847656 C 0 -0.207031 1.261719 0 2.167969 0 L 2.769531 0 C 2.800781 0 2.820312 -0.0234375 2.820312 -0.0429688 L 2.820312 -2.308594 L 1.402344 -2.308594 L 1.402344 -1.601562 L 2.113281 -1.601562 L 2.113281 -0.675781 C 1.308594 -0.632812 0.710938 -0.972656 0.710938 -1.847656 C 0.710938 -2.992188 1.664062 -3.039062 2.113281 -3.019531 Z M 2.820312 -3.019531 "/></g></g></g><g fill="#d9d9d9" fill-opacity="1"><g transform="translate(20.832803, 13.472955)"><g><path d="M 1.507812 -0.632812 L 1.136719 -0.632812 L 1.136719 -3.699219 L 0.429688 -3.699219 L 0.429688 -0.632812 L 0.0507812 -0.632812 C 0.0234375 -0.632812 0 -0.613281 0 -0.589844 L 0 -0.0429688 C 0 -0.0234375 0.0234375 0 0.0507812 0 L 1.507812 0 C 1.539062 0 1.558594 -0.0234375 1.558594 -0.0429688 L 1.558594 -0.589844 C 1.558594 -0.613281 1.539062 -0.632812 1.507812 -0.632812 Z M 1.507812 -0.632812 "/></g></g></g><g fill="#d9d9d9" fill-opacity="1"><g transform="translate(22.469191, 13.472955)"><g><path d="M 0.761719 -2.359375 L 0.761719 -0.0429688 C 0.761719 -0.0234375 0.78125 0 0.8125 0 L 1.410156 0 C 1.441406 0 1.464844 -0.0234375 1.464844 -0.0429688 L 1.464844 -2.359375 Z M 0.0507812 -3.066406 L 2.171875 -3.066406 C 2.207031 -3.066406 2.222656 -3.082031 2.222656 -3.105469 L 2.222656 -3.65625 C 2.222656 -3.675781 2.207031 -3.699219 2.171875 -3.699219 L 0.0507812 -3.699219 C 0.0234375 -3.699219 0 -3.675781 0 -3.65625 L 0 -3.105469 C 0 -3.082031 0.0234375 -3.066406 0.0507812 -3.066406 Z M 0.0507812 -3.066406 "/></g></g></g><g fill="#d9d9d9" fill-opacity="1"><g transform="translate(24.803587, 13.472955)"><g><path d="M 2.902344 -0.0546875 L 1.496094 -3.671875 C 1.484375 -3.707031 1.417969 -3.707031 1.40625 -3.671875 L 0.00390625 -0.0546875 C -0.0078125 -0.0273438 0.0078125 0 0.0507812 0 L 0.683594 0 C 0.703125 0 0.726562 -0.0078125 0.730469 -0.0273438 L 1.453125 -2.089844 L 2.183594 -0.0273438 C 2.1875 -0.0078125 2.210938 0 2.222656 0 L 2.863281 0 C 2.894531 0 2.917969 -0.0273438 2.902344 -0.0546875 Z M 2.902344 -0.0546875 "/></g></g></g><g fill="#d9d9d9" fill-opacity="1"><g transform="translate(27.85448, 13.472955)"><g><path d="M 1.996094 -0.6875 L 0 -0.6875 L 0 -0.0429688 C 0 -0.0234375 0.0234375 0 0.0507812 0 L 1.996094 0 C 2.03125 0 2.046875 -0.0234375 2.046875 -0.0429688 L 2.046875 -0.644531 C 2.046875 -0.664062 2.03125 -0.6875 1.996094 -0.6875 Z M 0.707031 -1.394531 L 0.707031 -3.65625 C 0.707031 -3.675781 0.6875 -3.699219 0.660156 -3.699219 L 0.0507812 -3.699219 C 0.0234375 -3.699219 0 -3.675781 0 -3.65625 L 0 -1.394531 Z M 0.707031 -1.394531 "/></g></g></g><g fill="#d9d9d9" fill-opacity="1"><g transform="translate(8.888955, 19.940637)"><g><path d="M 1.757812 -0.6875 L 0.707031 -0.6875 L 0.707031 -1.519531 L 2.160156 -1.519531 C 2.1875 -1.519531 2.210938 -1.542969 2.210938 -1.5625 L 2.210938 -2.148438 C 2.210938 -2.171875 2.1875 -2.191406 2.160156 -2.191406 L 0.707031 -2.191406 L 0.707031 -3.027344 L 1.757812 -3.027344 L 1.757812 -3.699219 L 0.0507812 -3.699219 C 0.0234375 -3.699219 0 -3.675781 0 -3.65625 L 0 -0.0429688 C 0 -0.0234375 0.0234375 0 0.0507812 0 L 1.757812 0 Z M 1.757812 -0.6875 "/></g></g></g><g fill="#d9d9d9" fill-opacity="1"><g transform="translate(11.209482, 19.940637)"><g><path d="M 3.0625 -3.699219 L 2.464844 -3.699219 C 2.433594 -3.699219 2.410156 -3.675781 2.410156 -3.65625 L 2.410156 -1.25 L 0.703125 -3.683594 C 0.699219 -3.695312 0.671875 -3.699219 0.660156 -3.699219 L 0.046875 -3.699219 C 0.0234375 -3.699219 0 -3.675781 0 -3.65625 L 0 -0.886719 L 0.707031 -0.886719 L 0.707031 -2.449219 L 2.410156 -0.015625 C 2.414062 -0.00390625 2.441406 0 2.449219 0 L 3.0625 0 C 3.09375 0 3.113281 -0.0234375 3.113281 -0.0429688 L 3.113281 -3.65625 C 3.113281 -3.675781 3.09375 -3.699219 3.0625 -3.699219 Z M 3.0625 -3.699219 "/></g></g></g><g fill="#d9d9d9" fill-opacity="1"><g transform="translate(14.477635, 19.940637)"><g><path d="M 0.65625 -3.699219 L 0.0507812 -3.699219 C 0.0234375 -3.699219 0 -3.675781 0 -3.65625 L 0 -2.207031 L 0.707031 -2.207031 L 0.707031 -3.023438 C 1.511719 -3.066406 2.109375 -2.726562 2.109375 -1.847656 C 2.109375 -0.707031 1.15625 -0.660156 0.707031 -0.679688 L 0.707031 -1.492188 L 0 -1.492188 L 0 -0.0429688 C 0 -0.0234375 0.0234375 0 0.0507812 0 L 0.65625 0 C 1.578125 0 2.820312 -0.269531 2.820312 -1.847656 C 2.820312 -3.492188 1.558594 -3.699219 0.65625 -3.699219 Z M 0.65625 -3.699219 "/></g></g></g><g fill="#d9d9d9" fill-opacity="1"><g transform="translate(17.440699, 19.940637)"><g><path d="M 1.757812 -0.6875 L 0.707031 -0.6875 L 0.707031 -1.519531 L 2.160156 -1.519531 C 2.1875 -1.519531 2.210938 -1.542969 2.210938 -1.5625 L 2.210938 -2.148438 C 2.210938 -2.171875 2.1875 -2.191406 2.160156 -2.191406 L 0.707031 -2.191406 L 0.707031 -3.027344 L 1.757812 -3.027344 L 1.757812 -3.699219 L 0.0507812 -3.699219 C 0.0234375 -3.699219 0 -3.675781 0 -3.65625 L 0 -0.0429688 C 0 -0.0234375 0.0234375 0 0.0507812 0 L 1.757812 0 Z M 1.757812 -0.6875 "/></g></g></g><g fill="#d9d9d9" fill-opacity="1"><g transform="translate(19.761226, 19.940637)"><g><path d="M 2.902344 -0.0546875 L 1.496094 -3.671875 C 1.484375 -3.707031 1.417969 -3.707031 1.40625 -3.671875 L 0.00390625 -0.0546875 C -0.0078125 -0.0273438 0.0078125 0 0.0507812 0 L 0.683594 0 C 0.703125 0 0.726562 -0.0078125 0.730469 -0.0273438 L 1.453125 -2.089844 L 2.183594 -0.0273438 C 2.1875 -0.0078125 2.210938 0 2.222656 0 L 2.863281 0 C 2.894531 0 2.917969 -0.0273438 2.902344 -0.0546875 Z M 2.902344 -0.0546875 "/></g></g></g><g fill="#d9d9d9" fill-opacity="1"><g transform="translate(22.812118, 19.940637)"><g><path d="M 1.929688 -3.011719 L 1.441406 -1.65625 L 0.722656 -3.671875 C 0.714844 -3.6875 0.699219 -3.699219 0.675781 -3.699219 L 0.046875 -3.699219 C 0.0078125 -3.699219 -0.0078125 -3.671875 0.00390625 -3.644531 L 1.394531 -0.0234375 C 1.414062 0.0078125 1.46875 0.0078125 1.484375 -0.0234375 L 2.640625 -3.011719 Z M 1.929688 -3.011719 "/></g></g></g><g fill="#d9d9d9" fill-opacity="1"><g transform="translate(25.585658, 19.940637)"><g><path d="M 2.125 -1.839844 C 2.125 -2.035156 1.972656 -2.191406 1.78125 -2.191406 C 1.585938 -2.191406 1.433594 -2.035156 1.433594 -1.839844 C 1.433594 -1.652344 1.585938 -1.492188 1.78125 -1.492188 C 1.972656 -1.492188 2.125 -1.652344 2.125 -1.839844 Z M 3.558594 -1.855469 C 3.558594 -2.773438 2.964844 -3.699219 1.785156 -3.699219 C 0.585938 -3.699219 0 -2.773438 0 -1.855469 C 0 -0.929688 0.585938 0 1.785156 0 C 2.964844 0 3.558594 -0.929688 3.558594 -1.855469 Z M 2.867188 -1.839844 C 2.867188 -1.242188 2.5 -0.648438 1.785156 -0.648438 C 1.058594 -0.648438 0.699219 -1.242188 0.699219 -1.839844 C 0.699219 -2.445312 1.058594 -3.046875 1.785156 -3.046875 C 2.5 -3.046875 2.867188 -2.445312 2.867188 -1.839844 Z M 2.867188 -1.839844 "/></g></g></g><g fill="#d9d9d9" fill-opacity="1"><g transform="translate(29.320691, 19.940637)"><g><path d="M 2.523438 -0.0585938 C 2.292969 -0.574219 2.042969 -1.082031 1.8125 -1.605469 C 2.183594 -1.738281 2.492188 -2.035156 2.492188 -2.597656 C 2.492188 -3.6875 1.453125 -3.699219 1.242188 -3.699219 L 0.046875 -3.699219 C 0.0234375 -3.699219 0 -3.675781 0 -3.65625 L 0 -3.027344 L 1.242188 -3.027344 C 1.355469 -3.027344 1.789062 -3.003906 1.789062 -2.597656 C 1.789062 -2.191406 1.394531 -2.171875 1.242188 -2.171875 L 0 -2.171875 L 0 -0.0429688 C 0 -0.0234375 0.0234375 0 0.046875 0 L 0.652344 0 C 0.679688 0 0.703125 -0.0234375 0.703125 -0.0429688 L 0.703125 -1.492188 L 1.101562 -1.492188 L 1.773438 -0.0273438 C 1.78125 -0.015625 1.808594 0 1.820312 0 L 2.484375 0 C 2.519531 0 2.539062 -0.0273438 2.523438 -0.0585938 Z M 2.523438 -0.0585938 "/></g></g></g><g fill="#d9d9d9" fill-opacity="1"><g transform="translate(31.978666, 19.940637)"><g><path d="M 1.695312 -2.054688 C 1.433594 -2.175781 1.175781 -2.175781 1.152344 -2.175781 C 0.914062 -2.175781 0.6875 -2.316406 0.6875 -2.585938 C 0.6875 -2.878906 0.898438 -3.03125 1.152344 -3.03125 C 1.390625 -3.03125 1.59375 -2.90625 1.605469 -2.644531 C 1.605469 -2.628906 1.628906 -2.609375 1.65625 -2.609375 L 2.234375 -2.609375 C 2.265625 -2.609375 2.289062 -2.628906 2.285156 -2.644531 C 2.273438 -3.273438 1.785156 -3.699219 1.152344 -3.699219 C 0.558594 -3.699219 0 -3.277344 0 -2.585938 C 0 -2.15625 0.21875 -1.828125 0.601562 -1.652344 C 0.871094 -1.527344 1.117188 -1.527344 1.152344 -1.527344 C 1.359375 -1.515625 1.613281 -1.351562 1.613281 -1.078125 C 1.613281 -0.832031 1.394531 -0.664062 1.152344 -0.664062 C 1.152344 -0.664062 1.152344 -0.664062 1.148438 -0.664062 L 1.148438 0 C 1.152344 0 1.152344 0 1.152344 0 C 1.742188 0 2.296875 -0.382812 2.296875 -1.078125 C 2.296875 -1.511719 2.085938 -1.871094 1.695312 -2.054688 Z M 1.695312 -2.054688 "/></g></g></g><g fill="#000000" fill-opacity="1"><g transform="translate(19.489852, 22.114018)"><g><path d="M 1.1875 -0.1875 L 1.1875 0 L 0.265625 0 L 0.265625 -1.265625 L 0.453125 -1.265625 L 0.453125 -0.1875 Z M 1.1875 -0.1875 "/></g></g></g><g fill="#000000" fill-opacity="1"><g transform="translate(20.874486, 22.114018)"><g><path d="M 1.1875 -0.1875 L 1.1875 0 L 0.265625 0 L 0.265625 -1.265625 L 0.453125 -1.265625 L 0.453125 -0.1875 Z M 1.1875 -0.1875 "/></g></g></g><g fill="#000000" fill-opacity="1"><g transform="translate(22.25912, 22.114018)"><g><path d="M 1.359375 -0.171875 C 1.328125 -0.140625 1.285156 -0.109375 1.234375 -0.078125 C 1.179688 -0.0546875 1.117188 -0.0351562 1.046875 -0.015625 C 0.984375 0.00390625 0.914062 0.015625 0.84375 0.015625 C 0.75 0.015625 0.660156 0 0.578125 -0.03125 C 0.492188 -0.0625 0.421875 -0.101562 0.359375 -0.15625 C 0.296875 -0.21875 0.25 -0.285156 0.21875 -0.359375 C 0.1875 -0.441406 0.171875 -0.535156 0.171875 -0.640625 C 0.171875 -0.734375 0.1875 -0.816406 0.21875 -0.890625 C 0.257812 -0.972656 0.3125 -1.039062 0.375 -1.09375 C 0.4375 -1.15625 0.507812 -1.203125 0.59375 -1.234375 C 0.675781 -1.265625 0.765625 -1.28125 0.859375 -1.28125 C 0.929688 -1.28125 1 -1.269531 1.0625 -1.25 C 1.132812 -1.226562 1.195312 -1.203125 1.25 -1.171875 C 1.300781 -1.140625 1.34375 -1.101562 1.375 -1.0625 L 1.265625 -0.90625 C 1.203125 -0.957031 1.132812 -1 1.0625 -1.03125 C 1 -1.0625 0.925781 -1.078125 0.84375 -1.078125 C 0.78125 -1.078125 0.71875 -1.066406 0.65625 -1.046875 C 0.601562 -1.035156 0.554688 -1.007812 0.515625 -0.96875 C 0.472656 -0.925781 0.4375 -0.875 0.40625 -0.8125 C 0.382812 -0.757812 0.375 -0.703125 0.375 -0.640625 C 0.375 -0.535156 0.394531 -0.445312 0.4375 -0.375 C 0.488281 -0.3125 0.550781 -0.257812 0.625 -0.21875 C 0.695312 -0.1875 0.773438 -0.171875 0.859375 -0.171875 C 0.921875 -0.171875 0.976562 -0.175781 1.03125 -0.1875 C 1.082031 -0.207031 1.125 -0.226562 1.15625 -0.25 C 1.195312 -0.28125 1.234375 -0.304688 1.265625 -0.328125 Z M 1.359375 -0.171875 "/></g></g></g><g fill="#d9d9d9" fill-opacity="1"><g transform="translate(35.573252, 11.433946)"><g><path d="M 0.144531 0 L 8.597656 0 C 9.445312 0 10.066406 -0.617188 10.066406 -1.464844 L 10.066406 -5.722656 C 10.066406 -6.570312 9.445312 -7.1875 8.597656 -7.1875 L 0.144531 -7.1875 C 0.0585938 -7.1875 0 -7.132812 0 -7.046875 L 0 -0.144531 C 0 -0.0585938 0.0585938 0 0.144531 0 Z M 1.4375 -1.4375 L 1.4375 -5.75 L 8.339844 -5.75 C 8.496094 -5.75 8.628906 -5.621094 8.628906 -5.464844 L 8.628906 -1.726562 C 8.628906 -1.566406 8.496094 -1.4375 8.339844 -1.4375 Z M 1.4375 -1.4375 "/></g></g></g><g fill="#d9d9d9" fill-opacity="1"><g transform="translate(47.073659, 11.433946)"><g><path d="M 0.144531 0 L 1.292969 0 C 1.378906 0 1.4375 -0.0585938 1.4375 -0.144531 L 1.4375 -7.046875 C 1.4375 -7.132812 1.378906 -7.1875 1.292969 -7.1875 L 0.144531 -7.1875 C 0.0585938 -7.1875 0 -7.132812 0 -7.046875 L 0 -0.144531 C 0 -0.0585938 0.0585938 0 0.144531 0 Z M 0.144531 0 "/></g></g></g><g fill="#d9d9d9" fill-opacity="1"><g transform="translate(49.948758, 11.433946)"><g><path d="M 1.464844 0 L 8.597656 0 C 9.445312 0 10.066406 -0.617188 10.066406 -1.464844 L 10.066406 -4.167969 C 10.066406 -4.257812 10.007812 -4.3125 9.921875 -4.3125 L 3.019531 -4.3125 C 2.933594 -4.3125 2.875 -4.257812 2.875 -4.167969 L 2.875 -3.019531 C 2.875 -2.933594 2.933594 -2.875 3.019531 -2.875 L 8.628906 -2.875 L 8.628906 -1.726562 C 8.628906 -1.566406 8.496094 -1.4375 8.339844 -1.4375 L 1.726562 -1.4375 C 1.566406 -1.4375 1.4375 -1.566406 1.4375 -1.726562 L 1.4375 -5.464844 C 1.4375 -5.621094 1.566406 -5.75 1.726562 -5.75 L 9.921875 -5.75 C 10.007812 -5.75 10.066406 -5.808594 10.066406 -5.894531 L 10.066406 -7.046875 C 10.066406 -7.132812 10.007812 -7.1875 9.921875 -7.1875 L 1.464844 -7.1875 C 0.617188 -7.1875 0 -6.570312 0 -5.722656 L 0 -1.464844 C 0 -0.617188 0.617188 0 1.464844 0 Z M 1.464844 0 "/></g></g></g><g fill="#d9d9d9" fill-opacity="1"><g transform="translate(61.449165, 11.433946)"><g><path d="M 0.144531 0 L 1.292969 0 C 1.378906 0 1.4375 -0.0585938 1.4375 -0.144531 L 1.4375 -7.046875 C 1.4375 -7.132812 1.378906 -7.1875 1.292969 -7.1875 L 0.144531 -7.1875 C 0.0585938 -7.1875 0 -7.132812 0 -7.046875 L 0 -0.144531 C 0 -0.0585938 0.0585938 0 0.144531 0 Z M 0.144531 0 "/></g></g></g><g fill="#d9d9d9" fill-opacity="1"><g transform="translate(64.324264, 11.433946)"><g><path d="M 4.457031 0 L 5.609375 0 C 5.695312 0 5.75 -0.0585938 5.75 -0.144531 L 5.75 -5.75 L 9.921875 -5.75 C 10.007812 -5.75 10.066406 -5.808594 10.066406 -5.894531 L 10.066406 -7.046875 C 10.066406 -7.132812 10.007812 -7.1875 9.921875 -7.1875 L 0.144531 -7.1875 C 0.0585938 -7.1875 0 -7.132812 0 -7.046875 L 0 -5.894531 C 0 -5.808594 0.0585938 -5.75 0.144531 -5.75 L 4.3125 -5.75 L 4.3125 -0.144531 C 4.3125 -0.0585938 4.371094 0 4.457031 0 Z M 4.457031 0 "/></g></g></g><g fill="#d9d9d9" fill-opacity="1"><g transform="translate(75.824671, 11.433946)"><g><path d="M 0.144531 0 L 1.292969 0 C 1.378906 0 1.4375 -0.0585938 1.4375 -0.144531 L 1.4375 -2.875 L 8.628906 -2.875 L 8.628906 -0.144531 C 8.628906 -0.0585938 8.683594 0 8.769531 0 L 9.921875 0 C 10.007812 0 10.066406 -0.0585938 10.066406 -0.144531 L 10.066406 -5.722656 C 10.066406 -6.570312 9.445312 -7.1875 8.597656 -7.1875 L 1.464844 -7.1875 C 0.617188 -7.1875 0 -6.570312 0 -5.722656 L 0 -0.144531 C 0 -0.0585938 0.0585938 0 0.144531 0 Z M 1.4375 -4.3125 L 1.4375 -5.464844 C 1.4375 -5.621094 1.566406 -5.75 1.726562 -5.75 L 8.339844 -5.75 C 8.496094 -5.75 8.628906 -5.621094 8.628906 -5.464844 L 8.628906 -4.3125 Z M 1.4375 -4.3125 "/></g></g></g><g fill="#d9d9d9" fill-opacity="1"><g transform="translate(87.325078, 11.433946)"><g><path d="M 1.464844 0 L 9.921875 0 C 10.007812 0 10.066406 -0.0585938 10.066406 -0.144531 L 10.066406 -1.292969 C 10.066406 -1.378906 10.007812 -1.4375 9.921875 -1.4375 L 1.726562 -1.4375 C 1.566406 -1.4375 1.4375 -1.566406 1.4375 -1.726562 L 1.4375 -7.046875 C 1.4375 -7.132812 1.378906 -7.1875 1.292969 -7.1875 L 0.144531 -7.1875 C 0.0585938 -7.1875 0 -7.132812 0 -7.046875 L 0 -1.464844 C 0 -0.617188 0.617188 0 1.464844 0 Z M 1.464844 0 "/></g></g></g><g fill="#d9d9d9" fill-opacity="1"><g transform="translate(35.573252, 25.303781)"><g><path d="M 1.464844 0 L 9.921875 0 C 10.007812 0 10.066406 -0.0585938 10.066406 -0.144531 L 10.066406 -1.292969 C 10.066406 -1.378906 10.007812 -1.4375 9.921875 -1.4375 L 1.726562 -1.4375 C 1.566406 -1.4375 1.4375 -1.566406 1.4375 -1.726562 L 1.4375 -2.875 L 9.230469 -2.875 C 9.347656 -2.875 9.402344 -2.933594 9.402344 -3.019531 L 9.402344 -4.167969 C 9.402344 -4.257812 9.347656 -4.3125 9.230469 -4.3125 L 1.4375 -4.3125 L 1.4375 -5.464844 C 1.4375 -5.621094 1.566406 -5.75 1.726562 -5.75 L 9.921875 -5.75 C 10.007812 -5.75 10.066406 -5.808594 10.066406 -5.894531 L 10.066406 -7.046875 C 10.066406 -7.132812 10.007812 -7.1875 9.921875 -7.1875 L 1.464844 -7.1875 C 0.617188 -7.1875 0 -6.570312 0 -5.722656 L 0 -1.464844 C 0 -0.617188 0.617188 0 1.464844 0 Z M 1.464844 0 "/></g></g></g><g fill="#d9d9d9" fill-opacity="1"><g transform="translate(47.073659, 25.303781)"><g><path d="M 9.921875 0 C 10.007812 0 10.066406 -0.0585938 10.066406 -0.144531 L 10.066406 -7.046875 C 10.066406 -7.132812 10.007812 -7.1875 9.921875 -7.1875 L 8.769531 -7.1875 C 8.683594 -7.1875 8.628906 -7.132812 8.628906 -7.046875 L 8.628906 -1.871094 L 1.4375 -7.1875 L 0.144531 -7.1875 C 0.0585938 -7.1875 0 -7.132812 0 -7.046875 L 0 -0.144531 C 0 -0.0585938 0.0585938 0 0.144531 0 L 1.292969 0 C 1.378906 0 1.4375 -0.0585938 1.4375 -0.144531 L 1.4375 -5.320312 L 8.628906 0 Z M 9.921875 0 "/></g></g></g><g fill="#d9d9d9" fill-opacity="1"><g transform="translate(58.574066, 25.303781)"><g><path d="M 0.144531 0 L 8.597656 0 C 9.445312 0 10.066406 -0.617188 10.066406 -1.464844 L 10.066406 -5.722656 C 10.066406 -6.570312 9.445312 -7.1875 8.597656 -7.1875 L 0.144531 -7.1875 C 0.0585938 -7.1875 0 -7.132812 0 -7.046875 L 0 -0.144531 C 0 -0.0585938 0.0585938 0 0.144531 0 Z M 1.4375 -1.4375 L 1.4375 -5.75 L 8.339844 -5.75 C 8.496094 -5.75 8.628906 -5.621094 8.628906 -5.464844 L 8.628906 -1.726562 C 8.628906 -1.566406 8.496094 -1.4375 8.339844 -1.4375 Z M 1.4375 -1.4375 "/></g></g></g><g fill="#d9d9d9" fill-opacity="1"><g transform="translate(70.074473, 25.303781)"><g><path d="M 1.464844 0 L 9.921875 0 C 10.007812 0 10.066406 -0.0585938 10.066406 -0.144531 L 10.066406 -1.292969 C 10.066406 -1.378906 10.007812 -1.4375 9.921875 -1.4375 L 1.726562 -1.4375 C 1.566406 -1.4375 1.4375 -1.566406 1.4375 -1.726562 L 1.4375 -2.875 L 9.230469 -2.875 C 9.347656 -2.875 9.402344 -2.933594 9.402344 -3.019531 L 9.402344 -4.167969 C 9.402344 -4.257812 9.347656 -4.3125 9.230469 -4.3125 L 1.4375 -4.3125 L 1.4375 -5.464844 C 1.4375 -5.621094 1.566406 -5.75 1.726562 -5.75 L 9.921875 -5.75 C 10.007812 -5.75 10.066406 -5.808594 10.066406 -5.894531 L 10.066406 -7.046875 C 10.066406 -7.132812 10.007812 -7.1875 9.921875 -7.1875 L 1.464844 -7.1875 C 0.617188 -7.1875 0 -6.570312 0 -5.722656 L 0 -1.464844 C 0 -0.617188 0.617188 0 1.464844 0 Z M 1.464844 0 "/></g></g></g><g fill="#d9d9d9" fill-opacity="1"><g transform="translate(81.574881, 25.303781)"><g><path d="M 0.144531 0 L 1.292969 0 C 1.378906 0 1.4375 -0.0585938 1.4375 -0.144531 L 1.4375 -2.875 L 8.628906 -2.875 L 8.628906 -0.144531 C 8.628906 -0.0585938 8.683594 0 8.769531 0 L 9.921875 0 C 10.007812 0 10.066406 -0.0585938 10.066406 -0.144531 L 10.066406 -5.722656 C 10.066406 -6.570312 9.445312 -7.1875 8.597656 -7.1875 L 1.464844 -7.1875 C 0.617188 -7.1875 0 -6.570312 0 -5.722656 L 0 -0.144531 C 0 -0.0585938 0.0585938 0 0.144531 0 Z M 1.4375 -4.3125 L 1.4375 -5.464844 C 1.4375 -5.621094 1.566406 -5.75 1.726562 -5.75 L 8.339844 -5.75 C 8.496094 -5.75 8.628906 -5.621094 8.628906 -5.464844 L 8.628906 -4.3125 Z M 1.4375 -4.3125 "/></g></g></g><g fill="#d9d9d9" fill-opacity="1"><g transform="translate(93.075288, 25.303781)"><g><path d="M 4.902344 -0.0859375 C 4.988281 -0.0429688 5.074219 -0.0429688 5.160156 -0.0859375 L 9.460938 -2.71875 C 9.847656 -2.960938 10.066406 -3.351562 10.066406 -3.796875 L 10.066406 -7.046875 C 10.066406 -7.132812 10.007812 -7.1875 9.921875 -7.1875 L 8.769531 -7.1875 C 8.683594 -7.1875 8.628906 -7.132812 8.628906 -7.046875 L 8.628906 -4.011719 C 8.628906 -3.925781 8.582031 -3.839844 8.511719 -3.796875 L 5.105469 -1.726562 C 5.0625 -1.695312 5.003906 -1.695312 4.960938 -1.726562 L 1.554688 -3.796875 C 1.480469 -3.839844 1.4375 -3.925781 1.4375 -4.011719 L 1.4375 -7.046875 C 1.4375 -7.132812 1.378906 -7.1875 1.292969 -7.1875 L 0.144531 -7.1875 C 0.0585938 -7.1875 0 -7.132812 0 -7.046875 L 0 -3.796875 C 0 -3.351562 0.214844 -2.960938 0.605469 -2.71875 Z M 4.902344 -0.0859375 "/></g></g></g><g fill="#d9d9d9" fill-opacity="1"><g transform="translate(104.575695, 25.303781)"><g><path d="M 1.464844 0 L 8.597656 0 C 9.445312 0 10.066406 -0.617188 10.066406 -1.464844 L 10.066406 -5.722656 C 10.066406 -6.570312 9.445312 -7.1875 8.597656 -7.1875 L 1.464844 -7.1875 C 0.617188 -7.1875 0 -6.570312 0 -5.722656 L 0 -1.464844 C 0 -0.617188 0.617188 0 1.464844 0 Z M 1.726562 -1.4375 C 1.566406 -1.4375 1.4375 -1.566406 1.4375 -1.726562 L 1.4375 -5.464844 C 1.4375 -5.621094 1.566406 -5.75 1.726562 -5.75 L 8.339844 -5.75 C 8.496094 -5.75 8.628906 -5.621094 8.628906 -5.464844 L 8.628906 -1.726562 C 8.628906 -1.566406 8.496094 -1.4375 8.339844 -1.4375 Z M 1.726562 -1.4375 "/></g></g></g><g fill="#d9d9d9" fill-opacity="1"><g transform="translate(116.076102, 25.303781)"><g><path d="M 0.144531 0 L 1.292969 0 C 1.378906 0 1.4375 -0.0585938 1.4375 -0.144531 L 1.4375 -2.875 L 6.871094 -2.875 L 7.878906 0 L 9.460938 0 L 8.453125 -2.875 L 8.597656 -2.875 C 9.445312 -2.875 10.066406 -3.492188 10.066406 -4.34375 L 10.066406 -5.722656 C 10.066406 -6.570312 9.445312 -7.1875 8.597656 -7.1875 L 0.144531 -7.1875 C 0.0585938 -7.1875 0 -7.132812 0 -7.046875 L 0 -0.144531 C 0 -0.0585938 0.0585938 0 0.144531 0 Z M 1.4375 -4.3125 L 1.4375 -5.75 L 8.339844 -5.75 C 8.496094 -5.75 8.628906 -5.621094 8.628906 -5.464844 L 8.628906 -4.601562 C 8.628906 -4.441406 8.496094 -4.3125 8.339844 -4.3125 Z M 1.4375 -4.3125 "/></g></g></g><g fill="#d9d9d9" fill-opacity="1"><g transform="translate(127.576509, 25.303781)"><g><path d="M 0.144531 0 L 8.597656 0 C 9.445312 0 10.066406 -0.617188 10.066406 -1.464844 L 10.066406 -2.847656 C 10.066406 -3.695312 9.445312 -4.3125 8.597656 -4.3125 L 1.726562 -4.3125 C 1.566406 -4.3125 1.4375 -4.441406 1.4375 -4.601562 L 1.4375 -5.464844 C 1.4375 -5.621094 1.566406 -5.75 1.726562 -5.75 L 9.921875 -5.75 C 10.007812 -5.75 10.066406 -5.808594 10.066406 -5.894531 L 10.066406 -7.046875 C 10.066406 -7.132812 10.007812 -7.1875 9.921875 -7.1875 L 1.464844 -7.1875 C 0.617188 -7.1875 0 -6.570312 0 -5.722656 L 0 -4.34375 C 0 -3.492188 0.617188 -2.875 1.464844 -2.875 L 8.339844 -2.875 C 8.496094 -2.875 8.628906 -2.746094 8.628906 -2.589844 L 8.628906 -1.726562 C 8.628906 -1.566406 8.496094 -1.4375 8.339844 -1.4375 L 0.144531 -1.4375 C 0.0585938 -1.4375 0 -1.378906 0 -1.292969 L 0 -0.144531 C 0 -0.0585938 0.0585938 0 0.144531 0 Z M 0.144531 0 "/></g></g></g></svg>